{
    "asset" : {
        "generator" : "Khronos glTF Blender I/O v3.4.50",
        "version" : "2.0"
    },
    "scene" : 0,
    "scenes" : [
        {
            "name" : "Scene",
            "nodes" : [
                1,
                4,
                5,
                6,
                7,
                8,
                9
            ]
        }
    ],
    "nodes" : [
        {
            "mesh" : 0,
            "name" : "Mesh_0",
            "rotation" : [
                0,
                0,
                0.7099338173866272,
                0.7042684555053711
            ],
            "scale" : [
                -0.8284556269645691,
                -0.8284556269645691,
                -0.8284555673599243
            ],
            "translation" : [
                929.272705078125,
                -1495.879638671875,
                -72.88480377197266
            ]
        },
        {
            "children" : [
                0
            ],
            "name" : "Flat Plane",
            "rotation" : [
                -0.70710688829422,
                0,
                0,
                0.7071066498756409
            ]
        },
        {
            "mesh" : 1,
            "name" : "jantev_alpine_1_Mat.2_0",
            "translation" : [
                -6.6037828219123185e-06,
                7.41473377274815e-06,
                -1.52587890625e-05
            ]
        },
        {
            "children" : [
                2
            ],
            "name" : "jantev_alpine_1",
            "rotation" : [
                0,
                0,
                -0.7071068286895752,
                0.7071067094802856
            ],
            "translation" : [
                55.62310791015625,
                12.977420806884766,
                102.58795928955078
            ]
        },
        {
            "children" : [
                3
            ],
            "name" : "jante_A5_1",
            "translation" : [
                50.31092834472656,
                45.40394592285156,
                95.89562225341797
            ]
        },
        {
            "name" : "Sketchfab_model",
            "rotation" : [
                -0.70710688829422,
                0,
                0,
                0.7071066498756409
            ],
            "scale" : [
                0.8621063232421875,
                0.8621063232421875,
                0.8621063232421875
            ]
        },
        {
            "mesh" : 2,
            "name" : "Plane"
        },
        {
            "mesh" : 3,
            "name" : "gravel-grass",
            "rotation" : [
                0,
                0.7071068286895752,
                0,
                0.7071068286895752
            ],
            "scale" : [
                5.909885883331299,
                5.909885883331299,
                5.909885883331299
            ],
            "translation" : [
                0.6455461978912354,
                -0.2055566906929016,
                5.5856218338012695
            ]
        },
        {
            "name" : "BezierCurve",
            "rotation" : [
                0,
                -0.7065876126289368,
                0,
                0.7076255679130554
            ],
            "translation" : [
                0.5077901482582092,
                1.899999976158142,
                5.700782775878906
            ]
        },
        {
            "mesh" : 4,
            "name" : "Plane.002",
            "scale" : [
                -16.29109001159668,
                -16.29109001159668,
                -16.29109001159668
            ],
            "translation" : [
                1.3205721378326416,
                0.11662942171096802,
                -21.183570861816406
            ]
        }
    ],
    "materials" : [
        {
            "doubleSided" : true,
            "name" : "Material_0",
            "pbrMetallicRoughness" : {
                "baseColorTexture" : {
                    "index" : 0
                },
                "metallicFactor" : 0.5,
                "roughnessFactor" : 0.5
            }
        },
        {
            "doubleSided" : true,
            "name" : "Mat.2",
            "pbrMetallicRoughness" : {
                "baseColorTexture" : {
                    "index" : 1
                },
                "metallicFactor" : 0,
                "roughnessFactor" : 0.9524317383766174
            }
        },
        {
            "alphaMode" : "BLEND",
            "doubleSided" : true,
            "name" : "gravel-grass",
            "pbrMetallicRoughness" : {
                "baseColorTexture" : {
                    "index" : 2
                },
                "metallicFactor" : 0,
                "roughnessFactor" : 0.5
            }
        }
    ],
    "meshes" : [
        {
            "name" : "Mesh_0",
            "primitives" : [
                {
                    "attributes" : {
                        "POSITION" : 0,
                        "TEXCOORD_0" : 1,
                        "NORMAL" : 2
                    },
                    "indices" : 3,
                    "material" : 0
                }
            ]
        },
        {
            "name" : "jantev_alpine_1_Mat.2_0",
            "primitives" : [
                {
                    "attributes" : {
                        "POSITION" : 4,
                        "TEXCOORD_0" : 5,
                        "NORMAL" : 6
                    },
                    "indices" : 7,
                    "material" : 1
                }
            ]
        },
        {
            "name" : "Plane",
            "primitives" : [
                {
                    "attributes" : {
                        "POSITION" : 8,
                        "TEXCOORD_0" : 9,
                        "NORMAL" : 10
                    },
                    "indices" : 11
                }
            ]
        },
        {
            "name" : "texturagravel",
            "primitives" : [
                {
                    "attributes" : {
                        "POSITION" : 12,
                        "TEXCOORD_0" : 13,
                        "NORMAL" : 14
                    },
                    "indices" : 15,
                    "material" : 2
                }
            ]
        },
        {
            "name" : "Plane.002",
            "primitives" : [
                {
                    "attributes" : {
                        "POSITION" : 16,
                        "TEXCOORD_0" : 17,
                        "NORMAL" : 18
                    },
                    "indices" : 11
                }
            ]
        }
    ],
    "textures" : [
        {
            "sampler" : 0,
            "source" : 0
        },
        {
            "sampler" : 1,
            "source" : 1
        },
        {
            "sampler" : 0,
            "source" : 2
        }
    ],
    "images" : [
        {
            "mimeType" : "image/png",
            "name" : "Image_0",
            "uri" : "Image_0.png"
        },
        {
            "mimeType" : "image/png",
            "name" : "Mat.2_baseColor",
            "uri" : "Mat_2_baseColor.png"
        },
        {
            "mimeType" : "image/png",
            "name" : "texturagravel",
            "uri" : "texturagravel.png"
        }
    ],
    "accessors" : [
        {
            "bufferView" : 0,
            "componentType" : 5126,
            "count" : 6,
            "max" : [
                3083.01953125,
                2994.21630859375,
                -4.95878339279443e-05
            ],
            "min" : [
                -2521.4599609375,
                -2663.7783203125,
                -61.03143310546875
            ],
            "type" : "VEC3"
        },
        {
            "bufferView" : 1,
            "componentType" : 5126,
            "count" : 6,
            "type" : "VEC2"
        },
        {
            "bufferView" : 2,
            "componentType" : 5126,
            "count" : 6,
            "type" : "VEC3"
        },
        {
            "bufferView" : 3,
            "componentType" : 5123,
            "count" : 6,
            "type" : "SCALAR"
        },
        {
            "bufferView" : 4,
            "componentType" : 5126,
            "count" : 115,
            "max" : [
                4.195836067199707,
                10.715714454650879,
                4.212196350097656
            ],
            "min" : [
                -4.214303493499756,
                -222.5837860107422,
                -4.202064514160156
            ],
            "type" : "VEC3"
        },
        {
            "bufferView" : 5,
            "componentType" : 5126,
            "count" : 115,
            "type" : "VEC2"
        },
        {
            "bufferView" : 6,
            "componentType" : 5126,
            "count" : 115,
            "type" : "VEC3"
        },
        {
            "bufferView" : 7,
            "componentType" : 5123,
            "count" : 162,
            "type" : "SCALAR"
        },
        {
            "bufferView" : 8,
            "componentType" : 5126,
            "count" : 4,
            "max" : [
                1,
                0,
                1
            ],
            "min" : [
                -1,
                0,
                -1
            ],
            "type" : "VEC3"
        },
        {
            "bufferView" : 9,
            "componentType" : 5126,
            "count" : 4,
            "type" : "VEC2"
        },
        {
            "bufferView" : 10,
            "componentType" : 5126,
            "count" : 4,
            "type" : "VEC3"
        },
        {
            "bufferView" : 11,
            "componentType" : 5123,
            "count" : 6,
            "type" : "SCALAR"
        },
        {
            "bufferView" : 12,
            "componentType" : 5126,
            "count" : 89144,
            "max" : [
                2.0022082328796387,
                1.619058609008789,
                141.90554809570312
            ],
            "min" : [
                -358.2505187988281,
                -0.22549965977668762,
                -0.5456121563911438
            ],
            "type" : "VEC3"
        },
        {
            "bufferView" : 13,
            "componentType" : 5126,
            "count" : 89144,
            "type" : "VEC2"
        },
        {
            "bufferView" : 14,
            "componentType" : 5126,
            "count" : 89144,
            "type" : "VEC3"
        },
        {
            "bufferView" : 15,
            "componentType" : 5125,
            "count" : 133812,
            "type" : "SCALAR"
        },
        {
            "bufferView" : 16,
            "componentType" : 5126,
            "count" : 4,
            "max" : [
                1,
                0,
                1
            ],
            "min" : [
                -1,
                0,
                -1
            ],
            "type" : "VEC3"
        },
        {
            "bufferView" : 17,
            "componentType" : 5126,
            "count" : 4,
            "type" : "VEC2"
        },
        {
            "bufferView" : 18,
            "componentType" : 5126,
            "count" : 4,
            "type" : "VEC3"
        }
    ],
    "bufferViews" : [
        {
            "buffer" : 0,
            "byteLength" : 72,
            "byteOffset" : 0,
            "target" : 34962
        },
        {
            "buffer" : 0,
            "byteLength" : 48,
            "byteOffset" : 72,
            "target" : 34962
        },
        {
            "buffer" : 0,
            "byteLength" : 72,
            "byteOffset" : 120,
            "target" : 34962
        },
        {
            "buffer" : 0,
            "byteLength" : 12,
            "byteOffset" : 192,
            "target" : 34963
        },
        {
            "buffer" : 0,
            "byteLength" : 1380,
            "byteOffset" : 204,
            "target" : 34962
        },
        {
            "buffer" : 0,
            "byteLength" : 920,
            "byteOffset" : 1584,
            "target" : 34962
        },
        {
            "buffer" : 0,
            "byteLength" : 1380,
            "byteOffset" : 2504,
            "target" : 34962
        },
        {
            "buffer" : 0,
            "byteLength" : 324,
            "byteOffset" : 3884,
            "target" : 34963
        },
        {
            "buffer" : 0,
            "byteLength" : 48,
            "byteOffset" : 4208,
            "target" : 34962
        },
        {
            "buffer" : 0,
            "byteLength" : 32,
            "byteOffset" : 4256,
            "target" : 34962
        },
        {
            "buffer" : 0,
            "byteLength" : 48,
            "byteOffset" : 4288,
            "target" : 34962
        },
        {
            "buffer" : 0,
            "byteLength" : 12,
            "byteOffset" : 4336,
            "target" : 34963
        },
        {
            "buffer" : 0,
            "byteLength" : 1069728,
            "byteOffset" : 4348,
            "target" : 34962
        },
        {
            "buffer" : 0,
            "byteLength" : 713152,
            "byteOffset" : 1074076,
            "target" : 34962
        },
        {
            "buffer" : 0,
            "byteLength" : 1069728,
            "byteOffset" : 1787228,
            "target" : 34962
        },
        {
            "buffer" : 0,
            "byteLength" : 535248,
            "byteOffset" : 2856956,
            "target" : 34963
        },
        {
            "buffer" : 0,
            "byteLength" : 48,
            "byteOffset" : 3392204,
            "target" : 34962
        },
        {
            "buffer" : 0,
            "byteLength" : 32,
            "byteOffset" : 3392252,
            "target" : 34962
        },
        {
            "buffer" : 0,
            "byteLength" : 48,
            "byteOffset" : 3392284,
            "target" : 34962
        }
    ],
    "samplers" : [
        {
            "magFilter" : 9729,
            "minFilter" : 9987,
            "wrapS" : 33071,
            "wrapT" : 33071
        },
        {
            "magFilter" : 9729,
            "minFilter" : 9987
        }
    ],
    "buffers" : [
        {
            "byteLength" : 3392332,
            "uri" : "sacoverde.bin"
        }
    ]
}
