{
  "accessors": [
    {
      "bufferView": 2,
      "componentType": 5126,
      "count": 254,
      "max": [
        2.45587420463562,
        -1.9374260902404785,
        2.481509208679199
      ],
      "min": [
        -2.45587420463562,
        -2.302889585494995,
        1.8245660066604614
      ],
      "type": "VEC3"
    },
    {
      "bufferView": 2,
      "byteOffset": 3048,
      "componentType": 5126,
      "count": 254,
      "max": [
        0.9350892901420593,
        0.9999995231628418,
        0.9486193060874939
      ],
      "min": [
        -0.9350892901420593,
        -1.0,
        -0.9486193060874939
      ],
      "type": "VEC3"
    },
    {
      "bufferView": 1,
      "componentType": 5126,
      "count": 254,
      "max": [
        0.961068332195282,
        0.9063736796379089
      ],
      "min": [
        0.8016787767410278,
        0.0033602192997932434
      ],
      "type": "VEC2"
    },
    {
      "bufferView": 0,
      "componentType": 5125,
      "count": 1152,
      "type": "SCALAR"
    },
    {
      "bufferView": 2,
      "byteOffset": 6096,
      "componentType": 5126,
      "count": 244,
      "max": [
        0.4761923551559448,
        -7.738006591796875,
        11.22694206237793
      ],
      "min": [
        -5.359639644622803,
        -9.892236709594727,
        6.1880059242248535
      ],
      "type": "VEC3"
    },
    {
      "bufferView": 2,
      "byteOffset": 9024,
      "componentType": 5126,
      "count": 244,
      "max": [
        0.9999443292617798,
        0.9927783608436584,
        0.45226043462753296
      ],
      "min": [
        -0.9947943687438965,
        -0.9927783608436584,
        -0.9997373819351196
      ],
      "type": "VEC3"
    },
    {
      "bufferView": 1,
      "byteOffset": 2032,
      "componentType": 5126,
      "count": 244,
      "max": [
        0.7548967003822327,
        0.9468750357627869
      ],
      "min": [
        0.2805424928665161,
        0.4978104829788208
      ],
      "type": "VEC2"
    },
    {
      "bufferView": 0,
      "byteOffset": 4608,
      "componentType": 5125,
      "count": 960,
      "type": "SCALAR"
    },
    {
      "bufferView": 2,
      "byteOffset": 11952,
      "componentType": 5126,
      "count": 363,
      "max": [
        1.1341595649719238,
        1.1387964487075806,
        15.041524887084961
      ],
      "min": [
        -1.1341595649719238,
        -1.976706624031067,
        -0.5537625551223755
      ],
      "type": "VEC3"
    },
    {
      "bufferView": 2,
      "byteOffset": 16308,
      "componentType": 5126,
      "count": 363,
      "max": [
        0.9999583959579468,
        0.9999387264251709,
        0.7251960039138794
      ],
      "min": [
        -0.9999583959579468,
        -0.999998927116394,
        -1.0
      ],
      "type": "VEC3"
    },
    {
      "bufferView": 1,
      "byteOffset": 3984,
      "componentType": 5126,
      "count": 363,
      "max": [
        0.693553626537323,
        0.8824573159217834
      ],
      "min": [
        0.0033602197654545307,
        0.005342742893844843
      ],
      "type": "VEC2"
    },
    {
      "bufferView": 0,
      "byteOffset": 8448,
      "componentType": 5125,
      "count": 1776,
      "type": "SCALAR"
    },
    {
      "bufferView": 2,
      "byteOffset": 20664,
      "componentType": 5126,
      "count": 504,
      "max": [
        0.1822892129421234,
        0.18228918313980103,
        0.19300594925880432
      ],
      "min": [
        -0.1822892129421234,
        -0.18228918313980103,
        -0.11245769262313843
      ],
      "type": "VEC3"
    },
    {
      "bufferView": 2,
      "byteOffset": 26712,
      "componentType": 5126,
      "count": 504,
      "max": [
        0.9962607026100159,
        0.9962607026100159,
        1.0
      ],
      "min": [
        -0.9962607026100159,
        -0.9962607026100159,
        -1.0
      ],
      "type": "VEC3"
    },
    {
      "bufferView": 1,
      "byteOffset": 6888,
      "componentType": 5126,
      "count": 504,
      "max": [
        0.8750001192092896,
        1.0000001192092896
      ],
      "min": [
        0.375,
        0.0
      ],
      "type": "VEC2"
    },
    {
      "bufferView": 0,
      "byteOffset": 15552,
      "componentType": 5125,
      "count": 2592,
      "type": "SCALAR"
    },
    {
      "bufferView": 2,
      "byteOffset": 32760,
      "componentType": 5126,
      "count": 117,
      "max": [
        0.8508164286613464,
        0.8473532795906067,
        0.17341746389865875
      ],
      "min": [
        -0.8508163690567017,
        -0.8473528623580933,
        -0.17342022061347961
      ],
      "type": "VEC3"
    },
    {
      "bufferView": 2,
      "byteOffset": 34164,
      "componentType": 5126,
      "count": 117,
      "max": [
        1.0,
        1.0,
        0.9958473443984985
      ],
      "min": [
        -1.0,
        -1.0,
        -0.9958450794219971
      ],
      "type": "VEC3"
    },
    {
      "bufferView": 1,
      "byteOffset": 10920,
      "componentType": 5126,
      "count": 117,
      "max": [
        1.0000001192092896,
        1.0000001192092896
      ],
      "min": [
        -1.1102231569740545e-16,
        0.0
      ],
      "type": "VEC2"
    },
    {
      "bufferView": 0,
      "byteOffset": 25920,
      "componentType": 5125,
      "count": 576,
      "type": "SCALAR"
    },
    {
      "bufferView": 2,
      "byteOffset": 35568,
      "componentType": 5126,
      "count": 30,
      "max": [
        0.015619922429323196,
        0.01642383448779583,
        0.0
      ],
      "min": [
        -0.01561992708593607,
        -0.01328702550381422,
        -0.2606625556945801
      ],
      "type": "VEC3"
    },
    {
      "bufferView": 2,
      "byteOffset": 35928,
      "componentType": 5126,
      "count": 30,
      "max": [
        0.9510607719421387,
        1.0,
        0.46586593985557556
      ],
      "min": [
        -0.9510607719421387,
        -0.809030294418335,
        -0.8924174904823303
      ],
      "type": "VEC3"
    },
    {
      "bufferView": 1,
      "byteOffset": 11856,
      "componentType": 5126,
      "count": 30,
      "max": [
        0.0,
        0.0
      ],
      "min": [
        0.0,
        0.0
      ],
      "type": "VEC2"
    },
    {
      "bufferView": 0,
      "byteOffset": 28224,
      "componentType": 5125,
      "count": 159,
      "type": "SCALAR"
    },
    {
      "bufferView": 2,
      "byteOffset": 36288,
      "componentType": 5126,
      "count": 172,
      "max": [
        0.3645937442779541,
        0.3351250886917114,
        1.729649305343628
      ],
      "min": [
        -0.3645937442779541,
        0.003214925527572632,
        1.4976017475128174
      ],
      "type": "VEC3"
    },
    {
      "bufferView": 2,
      "byteOffset": 38352,
      "componentType": 5126,
      "count": 172,
      "max": [
        0.9999203681945801,
        0.9997661113739014,
        0.9858240485191345
      ],
      "min": [
        -0.9999203681945801,
        -0.9788312315940857,
        -0.9945354461669922
      ],
      "type": "VEC3"
    },
    {
      "bufferView": 1,
      "byteOffset": 12096,
      "componentType": 5126,
      "count": 172,
      "max": [
        0.7902031540870667,
        0.822507381439209
      ],
      "min": [
        0.7003238797187805,
        0.49763932824134827
      ],
      "type": "VEC2"
    },
    {
      "bufferView": 0,
      "byteOffset": 28860,
      "componentType": 5125,
      "count": 720,
      "type": "SCALAR"
    },
    {
      "bufferView": 2,
      "byteOffset": 40416,
      "componentType": 5126,
      "count": 453,
      "max": [
        0.5745298266410828,
        0.5603055357933044,
        4.6566133171666024e-09
      ],
      "min": [
        -0.5745298266410828,
        -0.6690943241119385,
        -0.719304084777832
      ],
      "type": "VEC3"
    },
    {
      "bufferView": 2,
      "byteOffset": 45852,
      "componentType": 5126,
      "count": 453,
      "max": [
        0.9331268072128296,
        0.9857075214385986,
        -0.16846570372581482
      ],
      "min": [
        -0.9331268072128296,
        -0.9424414038658142,
        -0.9999723434448242
      ],
      "type": "VEC3"
    },
    {
      "bufferView": 1,
      "byteOffset": 13472,
      "componentType": 5126,
      "count": 453,
      "max": [
        0.9676898717880249,
        0.911918044090271
      ],
      "min": [
        0.7504531145095825,
        0.2669190764427185
      ],
      "type": "VEC2"
    },
    {
      "bufferView": 0,
      "byteOffset": 31740,
      "componentType": 5125,
      "count": 1632,
      "type": "SCALAR"
    },
    {
      "bufferView": 2,
      "byteOffset": 51288,
      "componentType": 5126,
      "count": 4961,
      "max": [
        1.1508501768112183,
        1.343204140663147,
        2.0003063678741455
      ],
      "min": [
        -1.1508501768112183,
        -1.65366530418396,
        -2.2921698093414307
      ],
      "type": "VEC3"
    },
    {
      "bufferView": 2,
      "byteOffset": 110820,
      "componentType": 5126,
      "count": 4961,
      "max": [
        0.9999958276748657,
        0.9999544620513916,
        1.0
      ],
      "min": [
        -0.9999958276748657,
        -0.9997916221618652,
        -0.9999499320983887
      ],
      "type": "VEC3"
    },
    {
      "bufferView": 1,
      "byteOffset": 17096,
      "componentType": 5126,
      "count": 4961,
      "max": [
        0.9602283835411072,
        0.9966400265693665
      ],
      "min": [
        0.0036252280697226524,
        0.0034629341680556536
      ],
      "type": "VEC2"
    },
    {
      "bufferView": 0,
      "byteOffset": 38268,
      "componentType": 5125,
      "count": 20892,
      "type": "SCALAR"
    }
  ],
  "asset": {
    "extras": {
      "author": "thomaseh_ (https://sketchfab.com/thomaseh_)",
      "license": "CC-BY-4.0 (http://creativecommons.org/licenses/by/4.0/)",
      "source": "https://sketchfab.com/3d-models/lil-cow-harvest-moon-back-to-nature-3b2db26a99584daca66ec3a0c731c620",
      "title": "lil Cow - Harvest Moon: Back To Nature"
    },
    "generator": "Sketchfab-12.66.0",
    "version": "2.0"
  },
  "bufferViews": [
    {
      "buffer": 0,
      "byteLength": 121836,
      "name": "floatBufferViews",
      "target": 34963
    },
    {
      "buffer": 0,
      "byteLength": 56784,
      "byteOffset": 121836,
      "byteStride": 8,
      "name": "floatBufferViews",
      "target": 34962
    },
    {
      "buffer": 0,
      "byteLength": 170352,
      "byteOffset": 178620,
      "byteStride": 12,
      "name": "floatBufferViews",
      "target": 34962
    }
  ],
  "buffers": [
    {
      "byteLength": 348972,
      "uri": "scene.bin"
    }
  ],
  "images": [
    {
      "uri": "textures/cow_texture_baseColor.png"
    }
  ],
  "materials": [
    {
      "doubleSided": true,
      "name": "cow_texture",
      "pbrMetallicRoughness": {
        "baseColorTexture": {
          "index": 0
        },
        "metallicFactor": 0.0,
        "roughnessFactor": 0.8211145618000169
      }
    },
    {
      "doubleSided": true,
      "name": "kuku",
      "pbrMetallicRoughness": {
        "baseColorFactor": [
          0.8,
          0.581533,
          0.741563,
          1.0
        ],
        "metallicFactor": 0.0,
        "roughnessFactor": 0.856996017868142
      }
    },
    {
      "doubleSided": true,
      "name": "Cooper",
      "pbrMetallicRoughness": {
        "baseColorFactor": [
          0.8,
          0.241859,
          0.0949482,
          1.0
        ],
        "metallicFactor": 0.0,
        "roughnessFactor": 0.9041724285282792
      }
    },
    {
      "doubleSided": true,
      "name": "pinkish",
      "pbrMetallicRoughness": {
        "baseColorFactor": [
          0.8,
          0.502551,
          0.339914,
          1.0
        ],
        "metallicFactor": 0.0,
        "roughnessFactor": 0.8761114886544069
      }
    }
  ],
  "meshes": [
    {
      "name": "Telinga_cow texture_0",
      "primitives": [
        {
          "attributes": {
            "NORMAL": 1,
            "POSITION": 0,
            "TEXCOORD_0": 2
          },
          "indices": 3,
          "material": 0,
          "mode": 4
        }
      ]
    },
    {
      "name": "Tanduk_kuku_0",
      "primitives": [
        {
          "attributes": {
            "NORMAL": 5,
            "POSITION": 4,
            "TEXCOORD_0": 6
          },
          "indices": 7,
          "material": 1,
          "mode": 4
        }
      ]
    },
    {
      "name": "Ekor_cow texture_0",
      "primitives": [
        {
          "attributes": {
            "NORMAL": 9,
            "POSITION": 8,
            "TEXCOORD_0": 10
          },
          "indices": 11,
          "material": 0,
          "mode": 4
        }
      ]
    },
    {
      "name": "Lonceng_Cooper_0",
      "primitives": [
        {
          "attributes": {
            "NORMAL": 13,
            "POSITION": 12,
            "TEXCOORD_0": 14
          },
          "indices": 15,
          "material": 2,
          "mode": 4
        }
      ]
    },
    {
      "name": "Lonceng2_Cooper_0",
      "primitives": [
        {
          "attributes": {
            "NORMAL": 17,
            "POSITION": 16,
            "TEXCOORD_0": 18
          },
          "indices": 19,
          "material": 2,
          "mode": 4
        }
      ]
    },
    {
      "name": "Lonceng3_Cooper_0",
      "primitives": [
        {
          "attributes": {
            "NORMAL": 21,
            "POSITION": 20,
            "TEXCOORD_0": 22
          },
          "indices": 23,
          "material": 2,
          "mode": 4
        }
      ]
    },
    {
      "name": "Mata_cow texture_0",
      "primitives": [
        {
          "attributes": {
            "NORMAL": 25,
            "POSITION": 24,
            "TEXCOORD_0": 26
          },
          "indices": 27,
          "material": 0,
          "mode": 4
        }
      ]
    },
    {
      "name": "Susu_pinkish_0",
      "primitives": [
        {
          "attributes": {
            "NORMAL": 29,
            "POSITION": 28,
            "TEXCOORD_0": 30
          },
          "indices": 31,
          "material": 3,
          "mode": 4
        }
      ]
    },
    {
      "name": "Badan Retopo_cow texture_0",
      "primitives": [
        {
          "attributes": {
            "NORMAL": 33,
            "POSITION": 32,
            "TEXCOORD_0": 34
          },
          "indices": 35,
          "material": 0,
          "mode": 4
        }
      ]
    }
  ],
  "nodes": [
    {
      "children": [
        1
      ],
      "matrix": [
        1.0,
        0.0,
        0.0,
        0.0,
        0.0,
        2.220446049250313e-16,
        -1.0,
        0.0,
        0.0,
        1.0,
        2.220446049250313e-16,
        0.0,
        0.0,
        0.0,
        0.0,
        1.0
      ],
      "name": "Sketchfab_model"
    },
    {
      "children": [
        2
      ],
      "matrix": [
        1.0,
        0.0,
        0.0,
        0.0,
        0.0,
        0.0,
        1.0,
        0.0,
        0.0,
        -1.0,
        0.0,
        0.0,
        0.0,
        0.0,
        0.0,
        1.0
      ],
      "name": "Cow.fbx"
    },
    {
      "children": [
        3,
        5,
        7,
        9,
        11,
        13,
        15,
        17,
        19
      ],
      "name": "RootNode"
    },
    {
      "children": [
        4
      ],
      "matrix": [
        42.41709899902344,
        0.0,
        0.0,
        0.0,
        -0.0,
        -6.910622586751471e-06,
        -42.417098999022876,
        0.0,
        0.0,
        42.417098999022876,
        -6.910622586751471e-06,
        0.0,
        -5.9604644775390625e-06,
        -0.8894466757774353,
        -1.1920928955078125e-05,
        1.0
      ],
      "name": "Telinga"
    },
    {
      "mesh": 0,
      "name": "Telinga_cow texture_0"
    },
    {
      "children": [
        6
      ],
      "matrix": [
        11.545711100701084,
        -3.694856516051169,
        -3.471989829416844e-07,
        0.0,
        -8.451379654121106e-07,
        -1.6086450333297477e-06,
        -10.985073089599458,
        0.0,
        3.3689872384984247,
        10.527432713198625,
        -1.8008220084431735e-06,
        0.0,
        0.0,
        0.0,
        0.0,
        1.0
      ],
      "name": "Tanduk"
    },
    {
      "mesh": 1,
      "name": "Tanduk_kuku_0"
    },
    {
      "children": [
        8
      ],
      "matrix": [
        6.571221351623535,
        0.0,
        0.0,
        0.0,
        0.0,
        -6.571221351623462,
        9.922268190371648e-07,
        0.0,
        0.0,
        -9.922268190371648e-07,
        -6.571221351623462,
        0.0,
        0.0,
        37.88893127441406,
        -101.29104614257813,
        1.0
      ],
      "name": "Ekor"
    },
    {
      "mesh": 2,
      "name": "Ekor_cow texture_0"
    },
    {
      "children": [
        10
      ],
      "matrix": [
        84.09950256347656,
        0.0,
        0.0,
        0.0,
        0.0,
        -1.3701548094156669e-05,
        -84.09950256347545,
        0.0,
        0.0,
        84.09950256347545,
        -1.3701548094156669e-05,
        0.0,
        3.725290298461914e-07,
        20.424814224243164,
        -155.7963409423828,
        1.0
      ],
      "name": "Lonceng"
    },
    {
      "mesh": 3,
      "name": "Lonceng_Cooper_0"
    },
    {
      "children": [
        12
      ],
      "matrix": [
        3.6834959983825684,
        0.0,
        0.0,
        0.0,
        0.0,
        3.683495998382519,
        6.001176910410882e-07,
        0.0,
        0.0,
        -6.001176910410882e-07,
        3.683495998382519,
        0.0,
        0.0,
        37.46151351928711,
        -155.7955322265625,
        1.0
      ],
      "name": "Lonceng2"
    },
    {
      "mesh": 4,
      "name": "Lonceng2_Cooper_0"
    },
    {
      "children": [
        14
      ],
      "matrix": [
        105.96033477783203,
        0.0,
        0.0,
        0.0,
        0.0,
        -1.7263129730590298e-05,
        -105.96033477783062,
        0.0,
        0.0,
        105.96033477783062,
        -1.7263129730590298e-05,
        0.0,
        3.4458935260772705e-06,
        34.6988525390625,
        -155.72711181640625,
        1.0
      ],
      "name": "Lonceng3"
    },
    {
      "mesh": 5,
      "name": "Lonceng3_Cooper_0"
    },
    {
      "children": [
        16
      ],
      "matrix": [
        99.98000217828272,
        1.9694255015053836,
        -0.3471708867457469,
        0.0,
        -1.9991760273166823,
        98.86217381213905,
        -14.908903723251242,
        0.0,
        0.049600925990627834,
        14.912860548884202,
        98.88176072521578,
        0.0,
        -2.9802322387695313e-06,
        0.0,
        0.0,
        1.0
      ],
      "name": "Mata"
    },
    {
      "mesh": 6,
      "name": "Mata_cow texture_0"
    },
    {
      "children": [
        18
      ],
      "matrix": [
        78.27841186523438,
        0.0,
        0.0,
        0.0,
        0.0,
        -1.2753172042797582e-05,
        -78.27841186523334,
        0.0,
        0.0,
        78.27841186523334,
        -1.2753172042797582e-05,
        0.0,
        0.0,
        -48.168006896972656,
        -33.582122802734375,
        1.0
      ],
      "name": "Susu"
    },
    {
      "mesh": 7,
      "name": "Susu_pinkish_0"
    },
    {
      "children": [
        20
      ],
      "matrix": [
        74.20249938964844,
        -1.5760452507591954e-14,
        -1.1672570735883702e-14,
        0.0,
        1.1672572219751057e-14,
        70.97876244109237,
        -21.633913145840076,
        0.0,
        1.5760451408603943e-14,
        21.633913145840076,
        70.97876244109237,
        0.0,
        0.0,
        10.293868064880371,
        61.70830535888672,
        1.0
      ],
      "name": "Badan Retopo"
    },
    {
      "mesh": 8,
      "name": "Badan Retopo_cow texture_0"
    }
  ],
  "samplers": [
    {
      "magFilter": 9729,
      "minFilter": 9987,
      "wrapS": 10497,
      "wrapT": 10497
    }
  ],
  "scene": 0,
  "scenes": [
    {
      "name": "Sketchfab_Scene",
      "nodes": [
        0
      ]
    }
  ],
  "textures": [
    {
      "sampler": 0,
      "source": 0
    }
  ]
}
