{
  "accessors": [
    {
      "bufferView": 2,
      "componentType": 5126,
      "count": 5457,
      "max": [
        7.478967666625977,
        7.478971481323242,
        3.944561719894409
      ],
      "min": [
        -7.478970527648926,
        -7.478970050811768,
        -4.064785957336426
      ],
      "type": "VEC3"
    },
    {
      "bufferView": 2,
      "byteOffset": 65484,
      "componentType": 5126,
      "count": 5457,
      "max": [
        1.0,
        1.0,
        1.0
      ],
      "min": [
        -1.0,
        -1.0,
        -1.0
      ],
      "type": "VEC3"
    },
    {
      "bufferView": 3,
      "componentType": 5126,
      "count": 5457,
      "max": [
        0.9938116073608398,
        0.9876962304115295,
        1.0,
        1.0
      ],
      "min": [
        -0.9937937259674072,
        -0.9135666489601135,
        -1.0,
        1.0
      ],
      "type": "VEC4"
    },
    {
      "bufferView": 1,
      "componentType": 5126,
      "count": 5457,
      "max": [
        1.0,
        1.0
      ],
      "min": [
        0.0,
        0.0
      ],
      "type": "VEC2"
    },
    {
      "bufferView": 1,
      "byteOffset": 43656,
      "componentType": 5126,
      "count": 5457,
      "max": [
        1.0,
        1.0
      ],
      "min": [
        0.0,
        0.0
      ],
      "type": "VEC2"
    },
    {
      "bufferView": 1,
      "byteOffset": 87312,
      "componentType": 5126,
      "count": 5457,
      "max": [
        1.0,
        1.0
      ],
      "min": [
        0.0,
        0.0
      ],
      "type": "VEC2"
    },
    {
      "bufferView": 0,
      "componentType": 5125,
      "count": 28692,
      "type": "SCALAR"
    },
    {
      "bufferView": 2,
      "byteOffset": 130968,
      "componentType": 5126,
      "count": 1293,
      "max": [
        10.947028160095215,
        10.947028160095215,
        3.9452762603759766
      ],
      "min": [
        -10.947011947631836,
        -10.947002410888672,
        -4.093478202819824
      ],
      "type": "VEC3"
    },
    {
      "bufferView": 2,
      "byteOffset": 146484,
      "componentType": 5126,
      "count": 1293,
      "max": [
        0.9992311000823975,
        0.9992310404777527,
        0.9999734163284302
      ],
      "min": [
        -0.9992311000823975,
        -0.9992310404777527,
        -0.9999314546585083
      ],
      "type": "VEC3"
    },
    {
      "bufferView": 3,
      "byteOffset": 87312,
      "componentType": 5126,
      "count": 1293,
      "max": [
        0.9992337822914124,
        0.9992945790290833,
        0.5270487666130066,
        1.0
      ],
      "min": [
        -0.9992533326148987,
        -0.9992556571960449,
        -0.5236458778381348,
        -1.0
      ],
      "type": "VEC4"
    },
    {
      "bufferView": 1,
      "byteOffset": 130968,
      "componentType": 5126,
      "count": 1293,
      "max": [
        1.833946704864502,
        0.9602336287498474
      ],
      "min": [
        0.0007805824279785156,
        -0.003946723882108927
      ],
      "type": "VEC2"
    },
    {
      "bufferView": 1,
      "byteOffset": 141312,
      "componentType": 5126,
      "count": 1293,
      "max": [
        1.833946704864502,
        0.9602336287498474
      ],
      "min": [
        0.0007805824279785156,
        -0.003946723882108927
      ],
      "type": "VEC2"
    },
    {
      "bufferView": 1,
      "byteOffset": 151656,
      "componentType": 5126,
      "count": 1293,
      "max": [
        1.833946704864502,
        0.9602336287498474
      ],
      "min": [
        0.0007805824279785156,
        -0.003946723882108927
      ],
      "type": "VEC2"
    },
    {
      "bufferView": 0,
      "byteOffset": 114768,
      "componentType": 5125,
      "count": 6720,
      "type": "SCALAR"
    }
  ],
  "asset": {
    "extras": {
      "author": "Fishboe (https://sketchfab.com/ministephen)",
      "license": "CC-BY-4.0 (http://creativecommons.org/licenses/by/4.0/)",
      "source": "https://sketchfab.com/3d-models/jaguar-20-spoke-wheel-b133644163d54c94a2598abcc9262491",
      "title": "Jaguar 20 Spoke Wheel"
    },
    "generator": "Sketchfab-12.68.0",
    "version": "2.0"
  },
  "bufferViews": [
    {
      "buffer": 0,
      "byteLength": 141648,
      "name": "floatBufferViews",
      "target": 34963
    },
    {
      "buffer": 0,
      "byteLength": 162000,
      "byteOffset": 141648,
      "byteStride": 8,
      "name": "floatBufferViews",
      "target": 34962
    },
    {
      "buffer": 0,
      "byteLength": 162000,
      "byteOffset": 303648,
      "byteStride": 12,
      "name": "floatBufferViews",
      "target": 34962
    },
    {
      "buffer": 0,
      "byteLength": 108000,
      "byteOffset": 465648,
      "byteStride": 16,
      "name": "floatBufferViews",
      "target": 34962
    }
  ],
  "buffers": [
    {
      "byteLength": 573648,
      "uri": "scene.bin"
    }
  ],
  "images": [
    {
      "uri": "textures/material_baseColor.png"
    },
    {
      "uri": "textures/material_metallicRoughness.png"
    },
    {
      "uri": "textures/material_normal.png"
    },
    {
      "uri": "textures/Tire_baseColor.png"
    },
    {
      "uri": "textures/Tire_metallicRoughness.png"
    },
    {
      "uri": "textures/Tire_normal.png"
    }
  ],
  "materials": [
    {
      "doubleSided": true,
      "name": "material",
      "normalTexture": {
        "index": 2
      },
      "pbrMetallicRoughness": {
        "baseColorTexture": {
          "index": 0
        },
        "metallicRoughnessTexture": {
          "index": 1
        }
      }
    },
    {
      "doubleSided": true,
      "name": "Tire",
      "normalTexture": {
        "index": 5
      },
      "pbrMetallicRoughness": {
        "baseColorTexture": {
          "index": 3
        },
        "metallicRoughnessTexture": {
          "index": 4
        }
      }
    }
  ],
  "meshes": [
    {
      "name": "Rim.003_Rim_0",
      "primitives": [
        {
          "attributes": {
            "NORMAL": 1,
            "POSITION": 0,
            "TANGENT": 2,
            "TEXCOORD_0": 3,
            "TEXCOORD_1": 4,
            "TEXCOORD_2": 5
          },
          "indices": 6,
          "material": 0,
          "mode": 4
        }
      ]
    },
    {
      "name": "Rim.003_Tire_0",
      "primitives": [
        {
          "attributes": {
            "NORMAL": 8,
            "POSITION": 7,
            "TANGENT": 9,
            "TEXCOORD_0": 10,
            "TEXCOORD_1": 11,
            "TEXCOORD_2": 12
          },
          "indices": 13,
          "material": 1,
          "mode": 4
        }
      ]
    }
  ],
  "nodes": [
    {
      "children": [
        1
      ],
      "matrix": [
        -1.0,
        -6.290011496532519e-32,
        2.832769343193999e-16,
        0.0,
        2.832769343193999e-16,
        -2.220446049250313e-16,
        1.0,
        0.0,
        0.0,
        1.0,
        2.220446049250313e-16,
        0.0,
        0.00752482982352376,
        -6.635922542390808e-06,
        -14.829279899597168,
        1.0
      ],
      "name": "Sketchfab_model"
    },
    {
      "children": [
        2
      ],
      "matrix": [
        1.0,
        0.0,
        0.0,
        0.0,
        0.0,
        0.0,
        1.0,
        0.0,
        0.0,
        -1.0,
        0.0,
        0.0,
        0.0,
        0.0,
        0.0,
        1.0
      ],
      "name": "20spoke.fbx"
    },
    {
      "children": [
        3
      ],
      "name": "RootNode"
    },
    {
      "children": [
        4,
        5
      ],
      "matrix": [
        15.648406602101652,
        98.76805605404053,
        1.327036857282935e-05,
        0.0,
        -98.7680560540414,
        15.648406602101241,
        4.05912525696207e-06,
        0.0,
        1.932517582347425e-06,
        -1.3742071398414245e-05,
        99.99999999999903,
        0.0,
        0.0,
        0.0,
        0.0,
        1.0
      ],
      "name": "Rim.003"
    },
    {
      "mesh": 0,
      "name": "Rim.003_Rim_0"
    },
    {
      "mesh": 1,
      "name": "Rim.003_Tire_0"
    }
  ],
  "samplers": [
    {
      "magFilter": 9729,
      "minFilter": 9987,
      "wrapS": 10497,
      "wrapT": 10497
    }
  ],
  "scene": 0,
  "scenes": [
    {
      "name": "Sketchfab_Scene",
      "nodes": [
        0
      ]
    }
  ],
  "textures": [
    {
      "sampler": 0,
      "source": 0
    },
    {
      "sampler": 0,
      "source": 1
    },
    {
      "sampler": 0,
      "source": 2
    },
    {
      "sampler": 0,
      "source": 3
    },
    {
      "sampler": 0,
      "source": 4
    },
    {
      "sampler": 0,
      "source": 5
    }
  ]
}
