# Blender 3.6.0
# www.blender.org
mtllib EscortMK2.mtl
o escort
v 56.644199 108.999283 -32.911213
v 56.481098 107.473305 86.163483
v 56.427502 73.266510 147.013000
v 69.839798 64.214516 180.192001
v 66.933601 66.341919 189.908997
v 66.933601 65.882622 190.632004
v 67.989899 61.639530 189.494995
v 71.552696 69.579781 -68.578804
v 71.706802 58.462402 -184.998993
v 0.000000 60.057732 -186.479004
v 71.706802 53.346279 -192.608994
v 73.140900 23.716463 -189.425995
v 0.000000 71.066475 -79.119606
v 77.102303 51.127247 -131.750000
v 78.561699 17.416073 -95.461403
v 77.224701 43.243565 -159.455994
v 76.101898 23.716463 -177.384995
v 78.540497 39.102173 -107.986000
v 81.627197 47.670380 -131.750000
v 82.424301 41.005768 -157.841003
v 82.522797 37.073875 -109.612999
v 78.828903 17.416073 -103.688004
v 84.802200 41.736370 -131.662994
v 83.043404 35.566265 -155.449997
v 83.955200 32.390072 -113.894997
v 72.854103 16.361063 -184.309006
v 76.698700 16.731565 -168.628006
v 78.089699 17.280499 62.189102
v 84.406898 37.587009 136.304993
v 86.046097 41.005806 86.762802
v 84.916100 47.670418 112.853996
v 83.382896 17.416111 140.250000
v 85.839302 30.411709 129.320999
v 86.665199 31.511206 91.848396
v 87.560799 38.081703 112.853996
v 0.000000 2.525659 -186.917007
v 71.706802 2.525659 -184.817001
v 74.193604 2.525664 -171.839996
v 50.041698 2.525664 -173.940002
v 83.909302 28.500401 73.391197
v 82.228500 16.861704 79.198303
v 76.923302 52.596455 112.853989
v 78.881897 34.540997 69.796799
v 78.327003 49.570385 82.194099
v 74.534302 0.570077 -98.141090
v 72.635803 7.541112 166.063004
v 72.635803 4.555110 142.115997
v 78.540497 42.372013 141.591003
v 71.512604 47.100151 194.421005
v 70.498001 71.014412 141.007996
v 73.795097 0.434504 76.917610
v 78.561699 17.416111 153.570007
v 74.351097 19.044020 186.778000
v 74.171898 33.228458 -193.216003
v 30.660700 33.228458 -194.438004
v 74.435303 24.985960 -192.548996
v 30.660700 24.985960 -190.927994
v 30.660700 24.985960 -193.772003
v 30.660700 33.228458 -191.018997
v 72.474297 33.228458 -189.817993
v 75.436996 24.985964 -184.630997
v 72.474297 24.985964 -188.828003
v 30.660700 24.985960 -190.300995
v 75.242996 33.228462 -185.539993
v 72.849899 33.228462 -184.970993
v 72.849899 24.985964 -184.059998
v 70.696999 25.682220 191.270996
v 70.327499 23.999821 193.729004
v 70.445702 19.044022 193.729004
v 50.041698 4.555110 142.115997
v 50.226501 0.570077 -98.141090
v 49.856899 0.434504 76.917610
v -56.481098 107.473305 86.163483
v -56.644199 108.999283 -32.911213
v -56.427502 73.266510 147.013000
v -69.839798 64.214516 180.192001
v -66.933601 66.341919 189.908997
v -66.933601 65.882622 190.632004
v -67.989899 61.639530 189.494995
v -71.552696 69.579781 -68.578804
v -71.706802 58.462402 -184.998993
v -71.706802 53.346279 -192.608994
v 0.000000 54.338139 -194.587006
v -73.140900 23.716463 -189.425995
v 0.000000 23.716459 -191.526001
v -77.102303 51.127247 -131.750000
v -78.561699 17.416073 -95.461403
v -78.540497 39.102173 -107.986000
v -77.224701 43.243565 -159.455994
v -76.101898 23.716463 -177.384995
v -78.327003 49.570385 82.194099
v -78.089699 17.280499 62.189102
v -82.522797 37.073875 -109.612999
v -82.424301 41.005768 -157.841003
v -81.627197 47.670380 -131.750000
v -78.828903 17.416073 -103.688004
v -83.955200 32.390072 -113.894997
v -83.043404 35.566265 -155.449997
v -76.698700 16.731565 -168.628006
v -84.802200 41.736370 -131.662994
v -72.854103 16.361063 -184.309006
v 0.000000 16.361063 -186.408005
v -78.540497 42.372013 141.591003
v -78.561699 17.416111 153.570007
v -84.406898 37.587009 136.304993
v -78.881897 34.540997 69.796799
v -86.046097 41.005806 86.762802
v -83.909302 28.500401 73.391197
v -76.923302 52.596455 112.853989
v -84.916100 47.670418 112.853996
v -83.382896 17.416111 140.250000
v -85.839302 30.411709 129.320999
v -82.228500 16.861704 79.198303
v -87.560799 38.081703 112.853996
v -86.665199 31.511206 91.848396
v -71.706802 2.525659 -184.817001
v -74.193604 2.525664 -171.839996
v -50.041698 2.525664 -173.940002
v -70.498001 71.014412 141.007996
v -74.534302 0.570077 -98.141090
v -73.795097 0.434504 76.917610
v -72.635803 4.555110 142.115997
v -71.512604 47.100151 194.421005
v -72.635803 7.541112 166.063004
v -50.226501 0.570077 -98.141090
v -50.041698 4.555110 142.115997
v -30.660700 33.228458 -191.018997
v -72.474297 33.228458 -189.817993
v -74.171898 33.228458 -193.216003
v -30.660700 33.228458 -194.438004
v -72.849899 33.228462 -184.970993
v -75.242996 33.228462 -185.539993
v -74.435303 24.985960 -192.548996
v -30.660700 24.985960 -193.772003
v -30.660700 24.985960 -190.927994
v -75.436996 24.985964 -184.630997
v -72.474297 24.985964 -188.828003
v -30.660700 24.985960 -190.300995
v -72.849899 24.985964 -184.059998
v -70.327499 23.999821 193.729004
v -70.445702 19.044022 193.729004
v -74.351097 19.044020 186.778000
v -49.856899 0.434504 76.917610
v -70.696899 25.682220 191.270996
v 38.566799 17.725161 -186.910995
v 38.566799 31.802660 -205.026993
v 51.955299 22.075359 -205.026993
v 46.841301 6.336159 -205.026993
v 30.292200 6.336159 -205.026993
v 25.178200 22.075359 -205.026993
v 33.866901 44.306660 -186.910995
v 33.866901 58.384201 -205.026993
v 47.255501 48.656849 -205.026993
v 42.141499 32.917660 -205.026993
v 25.592400 32.917660 -205.026993
v 20.478399 48.656860 -205.026993
v -33.866901 44.306660 -186.910995
v -33.866901 58.384201 -205.026993
v -20.478399 48.656849 -205.026993
v -25.592400 32.917660 -205.026993
v -42.141499 32.917660 -205.026993
v -47.255501 48.656860 -205.026993
v -38.566799 17.725161 -186.910995
v -38.566799 31.802660 -205.026993
v -25.178200 22.075359 -205.026993
v -30.292200 6.336159 -205.026993
v -46.841400 6.336159 -205.026993
v -51.955299 22.075359 -205.026993
v 26.516800 39.718658 -202.595993
v 27.047100 37.344059 -202.595993
v -26.516800 39.718658 -202.595993
v -27.047100 37.344059 -202.595993
v -28.984100 17.595661 -202.595993
v 28.984100 17.595661 -202.595993
v 29.563700 15.221161 -202.595993
v -29.563700 15.221161 -202.595993
v 74.874802 25.573917 186.778000
v -74.874802 25.573917 186.778000
v 71.093498 30.273720 192.923004
v -71.093498 30.273720 192.923004
v 75.559601 46.498890 186.643997
v -75.559601 46.498890 186.643997
v 71.944801 38.686920 194.490005
v -71.944702 38.686920 194.490005
v 70.014900 65.845116 172.016998
v 73.933197 10.829916 175.289001
v 76.706100 18.563314 174.656006
v -73.933197 10.829916 175.289001
v -70.014900 65.845116 172.016998
v 77.764297 45.442913 174.656006
v 77.507896 23.066515 174.656006
v -76.706001 18.563314 174.656006
v -77.764297 45.442913 174.656006
v -77.507896 23.066515 174.656006
v 56.635700 112.431595 -21.087912
v -56.635700 112.431595 -21.087912
v 56.494499 112.150505 65.366188
v -56.494499 112.150505 65.366188
vn -0.0000 -0.9756 -0.2194
vn -0.3293 -0.8230 -0.4629
vn -0.1665 -0.9663 -0.1963
vn -0.2236 -0.9608 -0.1637
vn -0.0000 -0.9769 0.2139
vn -0.0000 -0.8441 -0.5362
vn -0.0000 0.2588 -0.9659
vn -0.9510 -0.1923 -0.2423
vn -0.9697 -0.2063 -0.1310
vn -0.0000 -0.7729 0.6345
vn -0.0300 -0.8295 0.5577
vn -0.0272 -0.8168 0.5762
vn -0.0285 0.1054 0.9940
vn -0.0261 0.0994 0.9947
vn -0.0242 -0.9945 0.1020
vn -0.0347 -0.9949 0.0950
vn -0.9545 -0.2983 0.0033
vn -0.9832 -0.0895 0.1591
vn -0.5199 -0.4276 -0.7395
vn -0.4595 -0.5862 0.6672
vn -0.5925 -0.7755 0.2181
vn -0.4407 -0.8729 0.2095
vn -0.5354 -0.7662 -0.3553
vn -0.5720 -0.7487 -0.3352
vn -0.9840 0.1753 -0.0320
vn -0.9248 0.0606 -0.3756
vn -0.9562 0.0195 0.2920
vn -0.9617 0.1785 0.2079
vn -0.8785 -0.4687 0.0929
vn -0.9931 -0.0725 0.0922
vn -0.9702 -0.2314 -0.0715
vn -0.8447 -0.4561 -0.2802
vn -0.0236 0.5715 0.8202
vn -0.0236 0.5710 0.8206
vn -0.9515 0.1999 0.2340
vn -0.7590 -0.2823 -0.5868
vn -0.7999 -0.3991 0.4481
vn -0.7695 -0.6260 0.1266
vn -0.5061 -0.8212 -0.2637
vn -0.9778 0.0087 -0.2095
vn -0.9387 0.2526 0.2346
vn -0.9637 -0.2658 0.0262
vn -0.9979 -0.0362 0.0539
vn -0.9894 -0.1245 -0.0750
vn -0.9406 -0.2594 -0.2192
vn -0.0288 -0.0343 0.9990
vn -0.0293 -0.0367 0.9989
vn -0.9652 0.1173 0.2339
vn -0.9794 0.0743 0.1877
vn -0.0000 1.0000 -0.0000
vn -0.9738 0.1971 0.1132
vn -0.9993 -0.0377 0.0010
vn -0.9940 -0.1092 0.0049
vn -0.7400 -0.2426 0.6274
vn -0.9710 0.2371 -0.0315
vn -0.9696 0.2448 -0.0027
vn -0.9724 0.2331 -0.0039
vn -0.7572 0.5930 -0.2741
vn -0.8793 0.4203 0.2243
vn -0.9893 0.0134 0.1455
vn -0.9047 0.4137 -0.1021
vn -0.9409 0.3383 0.0117
vn -0.0000 -0.3209 -0.9471
vn -0.9200 -0.3672 -0.1369
vn -0.9384 -0.3346 -0.0868
vn -0.9617 -0.2709 -0.0423
vn -0.0000 -0.0082 -1.0000
vn -0.0000 1.0000 0.0008
vn -0.0000 0.9923 -0.1237
vn -0.0000 -1.0000 -0.0000
vn -0.0280 0.0797 0.9964
vn -0.0278 0.0805 0.9964
vn 1.0000 -0.0000 -0.0000
vn -0.9920 -0.0095 0.1255
vn -0.9902 -0.0205 0.1382
vn -0.2143 -0.1073 -0.9709
vn -0.2299 -0.1120 -0.9668
vn -0.6961 0.2955 -0.6543
vn -0.9401 -0.0188 -0.3403
vn -0.8864 0.4594 -0.0573
vn -0.0000 -0.0000 -1.0000
vn -0.0000 0.9980 -0.0631
vn 0.3293 -0.8230 -0.4629
vn -0.0000 -0.8717 -0.4900
vn -0.0000 -0.9647 -0.2632
vn 0.1665 -0.9663 -0.1963
vn 0.2236 -0.9608 -0.1637
vn 0.9697 -0.2063 -0.1310
vn 0.9510 -0.1923 -0.2423
vn 0.0272 -0.8168 0.5762
vn 0.0300 -0.8295 0.5577
vn 0.0261 0.0994 0.9947
vn 0.0285 0.1054 0.9940
vn 0.9146 -0.4025 0.0372
vn 0.0347 -0.9949 0.0950
vn 0.0242 -0.9945 0.1020
vn 0.9545 -0.2983 0.0033
vn 0.5199 -0.4276 -0.7395
vn 0.4595 -0.5862 0.6672
vn 0.4407 -0.8729 0.2095
vn 0.5925 -0.7755 0.2181
vn 0.5720 -0.7487 -0.3352
vn 0.5354 -0.7662 -0.3553
vn 0.9248 0.0606 -0.3756
vn 0.9840 0.1753 -0.0320
vn 0.9617 0.1785 0.2079
vn 0.9562 0.0195 0.2920
vn 0.9931 -0.0725 0.0922
vn 0.8785 -0.4687 0.0929
vn 0.8447 -0.4561 -0.2802
vn 0.9702 -0.2314 -0.0715
vn 0.0236 0.5710 0.8206
vn 0.0236 0.5715 0.8202
vn 0.9515 0.1999 0.2340
vn 0.7590 -0.2823 -0.5868
vn 0.7999 -0.3991 0.4481
vn 0.5237 -0.8498 0.0599
vn 0.5061 -0.8212 -0.2637
vn 0.9778 0.0087 -0.2095
vn 0.9387 0.2526 0.2346
vn 0.9979 -0.0362 0.0539
vn 0.9637 -0.2658 0.0262
vn 0.9406 -0.2594 -0.2192
vn 0.9894 -0.1245 -0.0750
vn 0.0293 -0.0367 0.9989
vn 0.0288 -0.0343 0.9990
vn 0.9794 0.0743 0.1877
vn 0.9652 0.1173 0.2339
vn 0.9738 0.1971 0.1132
vn 0.9940 -0.1092 0.0049
vn 0.9993 -0.0377 0.0010
vn 0.7400 -0.2426 0.6274
vn 0.9710 0.2371 -0.0315
vn 0.9724 0.2331 -0.0039
vn 0.9696 0.2448 -0.0027
vn 0.7572 0.5930 -0.2741
vn 0.8793 0.4203 0.2243
vn 0.9893 0.0134 0.1455
vn 0.9391 0.3285 -0.1005
vn 0.8804 0.4721 -0.0445
vn 0.9118 -0.3116 -0.2675
vn 0.8218 -0.4096 -0.3960
vn 0.9617 -0.2709 -0.0423
vn 0.8825 -0.4519 0.1305
vn 0.9453 -0.3262 -0.0026
vn 0.9452 -0.3264 -0.0025
vn 0.8586 -0.5001 -0.1130
vn -0.0000 0.9419 -0.3358
vn 0.0278 0.0805 0.9964
vn 0.0280 0.0797 0.9964
vn -1.0000 -0.0000 -0.0000
vn 0.9902 -0.0205 0.1382
vn 0.9920 -0.0095 0.1255
vn 0.2299 -0.1120 -0.9668
vn 0.2143 -0.1073 -0.9709
vn 0.5748 -0.6324 -0.5193
vn 0.9401 -0.0188 -0.3403
vn 0.8864 0.4594 -0.0573
vn -0.1194 -0.6906 0.7133
vn 0.1194 -0.6906 0.7133
vn -0.7448 -0.6070 -0.2772
vn 0.7448 -0.6070 -0.2772
vn -0.5237 -0.8498 0.0599
vn 0.7695 -0.6260 0.1266
vn -0.7572 -0.4123 0.5066
vn 0.7572 -0.4123 0.5066
vn -0.0000 0.9997 0.0258
vn -0.9517 0.2051 0.2285
vn 0.9517 0.2051 0.2285
vn -0.8825 -0.4519 0.1305
vn -0.9453 -0.3262 -0.0026
vn -0.9452 -0.3264 -0.0025
vn -0.8586 -0.5001 -0.1130
vn 0.9500 -0.3120 -0.0127
vn 0.9415 -0.3371 -0.0024
vn -0.9500 -0.3120 -0.0127
vn -0.9415 -0.3371 -0.0024
vn -0.9146 -0.4025 0.0372
vn 0.9680 -0.2424 0.0647
vn -0.9708 -0.0213 0.2387
vn -0.9913 -0.1093 0.0735
vn -0.9680 -0.2424 0.0647
vn 0.9708 -0.0213 0.2387
vn 0.9913 -0.1093 0.0735
vn 0.9832 -0.0895 0.1591
vn 0.9989 0.0471 -0.0030
vn 1.0000 0.0001 0.0019
vn -0.9989 0.0471 -0.0030
vn -1.0000 0.0001 0.0019
vn -0.4976 -0.6849 -0.5322
vn -0.8052 0.2616 -0.5322
vn -0.0000 0.8466 -0.5322
vn 0.8052 0.2616 -0.5322
vn 0.4976 -0.6849 -0.5322
vn -0.0000 -0.0000 1.0000
vn -0.5748 -0.6324 -0.5193
vn 0.6960 0.2956 -0.6544
vn 0.8697 0.0697 -0.4886
vn 0.8346 -0.0199 -0.5505
vn -0.8697 0.0697 -0.4886
vn -0.8346 -0.0199 -0.5505
vn -0.0000 -0.8252 -0.5648
vn 0.9800 0.1745 -0.0957
vn -0.0000 0.3385 -0.9409
vn -0.0000 0.3386 -0.9409
vn -0.7634 0.1921 -0.6167
vn 0.7634 0.1921 -0.6167
vn -0.9118 -0.3116 -0.2675
vn -0.8218 -0.4096 -0.3960
vn 0.9384 -0.3346 -0.0868
vn 0.9200 -0.3672 -0.1369
vn -0.9767 0.0112 -0.2145
vn -0.9825 0.0310 -0.1834
vn 0.9767 0.0112 -0.2145
vn 0.9825 0.0310 -0.1834
vn -0.0000 0.1831 -0.9831
vn -0.8876 -0.0494 -0.4581
vn -0.9180 0.0275 -0.3956
vn 0.9180 0.0275 -0.3956
vn 0.8876 -0.0493 -0.4581
vn -0.9657 0.1719 -0.1944
vn -0.9708 0.0779 -0.2270
vn -0.9285 0.3171 -0.1930
vn -0.9628 -0.2703 0.0025
vn -0.9290 -0.3625 -0.0749
vn 0.9285 0.3171 -0.1930
vn -0.0000 0.8135 -0.5816
vn 0.9290 -0.3625 -0.0749
vn 0.9628 -0.2703 0.0025
vn -0.9988 -0.0220 -0.0440
vn -0.9996 0.0115 -0.0245
vn 0.9988 -0.0220 -0.0440
vn 0.9996 0.0115 -0.0245
vn -0.9800 0.1745 -0.0957
vn 0.9708 0.0779 -0.2270
vn 0.9657 0.1720 -0.1944
vn -0.0000 -0.9604 0.2788
vn -0.0000 -1.0000 -0.0033
vt 0.646841 0.508429
vt 0.608182 0.262534
vt 0.608431 0.511135
vt 0.646619 0.259464
vt 0.778127 0.545691
vt 0.787546 0.513928
vt 0.879630 0.546627
vt 0.898028 0.546523
vt 0.897386 0.227725
vt 0.929677 0.541407
vt 0.929677 0.232738
vt 0.931641 0.541424
vt 0.931640 0.232721
vt 0.950140 0.546599
vt 0.950139 0.227545
vt 0.893963 0.613794
vt 0.901178 0.596010
vt 0.872748 0.611501
vt 0.902991 0.596780
vt 0.393248 0.513658
vt 0.392220 0.262059
vt 0.244188 0.388707
vt 0.839336 0.859972
vt 0.999112 0.881140
vt 0.999112 0.859972
vt 0.839336 0.881140
vt 0.839336 0.948111
vt 0.999112 0.948111
vt 0.004444 0.550178
vt 0.004444 0.390778
vt 0.265793 0.549240
vt 0.296410 0.604378
vt 0.154090 0.644747
vt 0.632243 0.660042
vt 0.042765 0.696624
vt 0.089206 0.657892
vt 0.036508 0.618203
vt 0.207864 0.673109
vt 0.201685 0.680476
vt 0.234185 0.723097
vt 0.094875 0.669243
vt 0.152374 0.661347
vt 0.215939 0.723789
vt 0.192566 0.691006
vt 0.098023 0.681950
vt 0.058125 0.716493
vt 0.152233 0.674122
vt 0.999112 0.968008
vt 0.839336 0.968008
vt 0.014058 0.692302
vt 0.022140 0.710671
vt 0.769335 0.671601
vt 0.756330 0.687485
vt 0.804083 0.724731
vt 0.602962 0.693888
vt 0.613450 0.709226
vt 0.644803 0.684843
vt 0.702019 0.674354
vt 0.702363 0.650925
vt 0.743287 0.705948
vt 0.772671 0.729501
vt 0.585062 0.733130
vt 0.623213 0.736812
vt 0.703246 0.695047
vt 0.655006 0.706334
vt 0.999112 0.998720
vt 0.839336 0.998720
vt 0.044127 0.746208
vt 0.015289 0.740667
vt 0.404985 0.992878
vt 0.393546 0.970095
vt 0.391338 0.995493
vt 0.227631 0.761826
vt 0.615957 0.773994
vt 0.787500 0.762410
vt 0.853700 0.738770
vt 0.867427 0.711700
vt 0.870601 0.726151
vt 0.662755 0.848687
vt 0.987947 0.817941
vt 0.656616 0.817942
vt 0.981809 0.848686
vt 0.877956 0.646467
vt 0.854570 0.610171
vt 0.857669 0.652899
vt 0.777142 0.604505
vt 0.988605 0.799546
vt 0.655959 0.799547
vt 0.129723 0.995073
vt 0.313811 0.970289
vt 0.129723 0.969900
vt 0.313811 0.995851
vt 0.786172 0.039173
vt 0.794416 0.042173
vt 0.790427 0.027482
vt 0.028296 0.212894
vt 0.120375 0.204772
vt 0.021841 0.204772
vt 0.120375 0.212894
vt 0.021841 0.222959
vt 0.021841 0.221528
vt 0.021841 0.186365
vt 0.120375 0.186365
vt 0.128197 0.204772
vt 0.126918 0.186365
vt 0.007320 0.204772
vt 0.007320 0.186365
vt 0.028296 0.178769
vt 0.120375 0.178769
vt 0.024418 0.169269
vt 0.018662 0.170693
vt 0.001602 0.204772
vt 0.001602 0.186365
vt 0.907024 0.685646
vt 0.910194 0.678823
vt 0.883747 0.691196
vt 0.386483 0.815826
vt 0.028006 0.797384
vt 0.028006 0.815826
vt 0.386483 0.797384
vt 0.030303 0.776820
vt 0.384186 0.776820
vt 0.830931 0.055464
vt 0.843430 0.046773
vt 0.061024 0.864849
vt 0.061025 0.970095
vt 0.129723 0.865043
vt 0.786953 0.260689
vt 0.777378 0.229433
vt 0.878969 0.227701
vt 0.893098 0.161799
vt 0.900312 0.179582
vt 0.902126 0.178813
vt 0.871883 0.164091
vt 0.679363 0.881140
vt 0.679363 0.859972
vt 0.679363 0.948111
vt 0.035646 0.157391
vt 0.295548 0.171210
vt 0.153227 0.130843
vt 0.004444 0.231365
vt 0.263452 0.227933
vt 0.631380 0.115546
vt 0.207001 0.102480
vt 0.233322 0.052491
vt 0.200822 0.095113
vt 0.041900 0.078972
vt 0.088342 0.117702
vt 0.094011 0.106351
vt 0.151511 0.114243
vt 0.215075 0.051800
vt 0.191702 0.084582
vt 0.097159 0.093643
vt 0.057260 0.059102
vt 0.151370 0.101468
vt 0.679363 0.968008
vt 0.013193 0.083294
vt 0.021275 0.064925
vt 0.768472 0.103988
vt 0.803222 0.050858
vt 0.755467 0.088103
vt 0.602099 0.081700
vt 0.612587 0.066362
vt 0.701500 0.124663
vt 0.701156 0.101233
vt 0.771810 0.046088
vt 0.742425 0.069640
vt 0.584199 0.042458
vt 0.622349 0.038776
vt 0.643940 0.090744
vt 0.702383 0.080540
vt 0.654143 0.069254
vt 0.679363 0.998720
vt 0.043260 0.029388
vt 0.014422 0.034930
vt 0.404985 0.842067
vt 0.391338 0.839452
vt 0.393546 0.864849
vt 0.407193 0.917472
vt 0.226767 0.013763
vt 0.615093 0.001594
vt 0.786641 0.013179
vt 0.869848 0.049692
vt 0.866758 0.064339
vt 0.852839 0.036822
vt 0.910194 0.132208
vt 0.874810 0.129111
vt 0.776279 0.171083
vt 0.405679 0.261936
vt 0.129723 0.839870
vt 0.313811 0.864655
vt 0.313811 0.839093
vt 0.845455 0.043573
vt 0.790933 0.023729
vt 0.839175 0.058464
vt 0.028296 0.569993
vt 0.120375 0.578117
vt 0.120375 0.569993
vt 0.021841 0.578117
vt 0.021841 0.559930
vt 0.021841 0.561365
vt 0.021841 0.596523
vt 0.120375 0.596523
vt 0.127969 0.578117
vt 0.126691 0.596523
vt 0.007320 0.578117
vt 0.007320 0.596523
vt 0.028296 0.604119
vt 0.120375 0.604119
vt 0.024195 0.613619
vt 0.018437 0.612197
vt 0.001602 0.578117
vt 0.001602 0.596523
vt 0.905780 0.088270
vt 0.915348 0.087766
vt 0.880463 0.083632
vt 0.406689 0.513766
vt 0.018293 0.626086
vt 0.017430 0.149510
vt 0.664299 0.021339
vt 0.664299 0.045350
vt 0.687135 0.028759
vt 0.678412 0.001914
vt 0.650186 0.001914
vt 0.641463 0.028759
vt 0.100168 0.061810
vt 0.129266 0.040588
vt 0.070994 0.040695
vt 0.082060 0.006423
vt 0.118074 0.006357
vt 0.732925 0.743941
vt 0.732924 0.767952
vt 0.755760 0.751361
vt 0.747038 0.724516
vt 0.718811 0.724516
vt 0.710089 0.751361
vt 0.099768 0.770812
vt 0.128865 0.749590
vt 0.070594 0.749697
vt 0.081660 0.715425
vt 0.117674 0.715359
vt 0.666748 0.744455
vt 0.666748 0.768466
vt 0.689583 0.751875
vt 0.680861 0.725030
vt 0.652635 0.725030
vt 0.643912 0.751875
vt 0.172512 0.769447
vt 0.201609 0.748225
vt 0.143338 0.748332
vt 0.154404 0.714060
vt 0.190418 0.713994
vt 0.731146 0.022575
vt 0.731146 0.046586
vt 0.753982 0.029995
vt 0.745259 0.003150
vt 0.717033 0.003150
vt 0.708310 0.029995
vt 0.177057 0.062092
vt 0.206154 0.040870
vt 0.147882 0.040977
vt 0.158948 0.006705
vt 0.194962 0.006639
vt 0.977045 0.002771
vt 0.982488 0.125545
vt 0.982488 0.001555
vt 0.977045 0.124330
vt 0.993543 0.002353
vt 0.998986 0.136551
vt 0.998986 0.001025
vt 0.993543 0.135223
vt 0.918526 0.686102
vt 0.910194 0.095503
vt 0.918344 0.074565
vt 0.897951 0.070957
vt 0.923092 0.700781
vt 0.898526 0.705302
vt 0.030523 0.825106
vt 0.383966 0.825106
vt 0.862675 0.072974
vt 0.658203 0.773723
vt 0.986294 0.780861
vt 0.986361 0.773722
vt 0.658270 0.780861
vt 0.911631 0.660905
vt 0.911696 0.114053
vt 0.910194 0.643385
vt 0.853706 0.165420
vt 0.856814 0.122682
vt 0.863623 0.702106
vt 0.791769 0.017528
vt 0.848801 0.038285
s 0
usemtl 01_-_Default
f 2/1/1 198/2/1 197/3/1
f 198/2/1 2/1/1 73/4/1
f 2/1/2 50/5/2 3/6/2
f 3/6/3 185/7/3 4/8/3
f 185/7/4 3/6/4 50/5/4
f 76/9/5 5/10/5 77/11/5
f 5/10/5 76/9/5 4/8/5
f 77/11/6 6/12/6 78/13/6
f 6/12/6 77/11/6 5/10/6
f 78/13/7 7/14/7 79/15/7
f 7/14/7 78/13/7 6/12/7
f 7/16/8 5/17/8 4/18/8
f 5/17/9 7/16/9 6/19/9
f 1/20/10 74/21/10 13/22/10
f 10/23/11 11/24/11 9/25/11
f 11/24/12 10/23/12 83/26/12
f 11/24/13 85/27/13 12/28/13
f 85/27/14 11/24/14 83/26/14
f 9/29/15 13/22/15 10/30/15
f 13/22/16 9/29/16 8/31/16
f 8/32/17 14/33/17 44/34/17
f 17/35/18 16/36/18 9/37/18
f 18/38/19 21/39/19 15/40/19
f 17/35/20 20/41/20 16/36/20
f 16/36/21 19/42/21 14/33/21
f 19/42/22 16/36/22 20/41/22
f 14/33/23 21/39/23 18/38/23
f 21/39/24 14/33/24 19/42/24
f 21/39/25 22/43/25 15/40/25
f 22/43/26 21/39/26 25/44/26
f 17/35/27 24/45/27 20/41/27
f 24/45/28 17/35/28 27/46/28
f 20/41/29 23/47/29 19/42/29
f 23/47/30 20/41/30 24/45/30
f 19/42/31 25/44/31 21/39/31
f 25/44/32 19/42/32 23/47/32
f 85/27/33 26/48/33 12/28/33
f 26/48/34 85/27/34 102/49/34
f 17/35/35 12/50/35 26/51/35
f 48/52/36 29/53/36 52/54/36
f 43/55/37 40/56/37 44/34/37
f 44/34/38 30/57/38 31/58/38
f 42/59/39 31/58/39 48/52/39
f 29/53/40 33/60/40 32/61/40
f 28/62/41 41/63/41 40/56/41
f 30/57/42 35/64/42 31/58/42
f 35/64/43 30/57/43 34/65/43
f 31/58/44 33/60/44 29/53/44
f 33/60/45 31/58/45 35/64/45
f 102/49/46 37/66/46 26/48/46
f 37/66/47 102/49/47 36/67/47
f 26/51/48 38/68/48 27/46/48
f 38/68/49 26/51/49 37/69/49
f 37/70/50 39/71/50 38/72/50
f 40/56/51 41/63/51 34/65/51
f 44/34/52 18/38/52 43/55/52
f 18/38/53 44/34/53 14/33/53
f 40/56/54 43/55/54 28/62/54
f 22/43/55 45/73/55 15/40/55
f 15/40/56 51/74/56 28/62/56
f 51/74/57 15/40/57 45/73/57
f 32/61/58 47/75/58 52/54/58
f 28/62/59 51/74/59 41/63/59
f 40/56/60 34/65/60 30/57/60
f 46/76/61 187/77/61 52/54/61
f 187/77/62 46/76/62 186/78/62
f 79/79/63 49/80/63 123/81/63
f 49/80/63 79/79/63 7/82/63
f 181/83/64 185/84/64 190/85/64
f 185/84/65 181/83/65 4/18/65
f 48/52/66 50/86/66 42/59/66
f 123/81/67 183/87/67 184/88/67
f 183/87/67 123/81/67 49/80/67
f 51/89/68 71/90/68 72/91/68
f 71/90/68 51/89/68 45/92/68
f 47/93/69 70/94/69 46/95/69
f 60/96/70 55/97/70 54/98/70
f 55/97/70 60/96/70 59/99/70
f 54/98/70 65/100/70 60/96/70
f 65/100/70 54/98/70 64/101/70
f 55/97/71 56/102/71 54/98/71
f 56/102/72 55/97/72 58/103/72
f 59/104/73 58/103/73 55/97/73
f 58/103/73 59/104/73 57/105/73
f 64/106/74 56/102/74 61/107/74
f 56/102/75 64/106/75 54/98/75
f 58/103/50 62/108/50 56/102/50
f 62/108/50 58/103/50 63/109/50
f 56/102/50 66/110/50 61/111/50
f 66/110/50 56/102/50 62/108/50
f 65/112/76 61/107/76 66/113/76
f 61/107/77 65/112/77 64/106/77
f 67/114/78 179/115/78 177/116/78
f 29/53/79 32/61/79 52/54/79
f 52/54/80 47/75/80 46/76/80
f 68/117/81 141/118/81 140/119/81
f 141/118/81 68/117/81 69/120/81
f 69/120/50 142/121/50 141/118/50
f 142/121/50 69/120/50 53/122/50
f 46/95/69 126/123/69 124/124/69
f 126/123/69 46/95/69 70/94/69
f 72/91/82 126/125/82 70/126/82
f 126/125/82 72/91/82 143/127/82
f 73/4/83 75/128/83 119/129/83
f 73/4/84 3/6/84 75/128/84
f 3/6/84 73/4/84 2/1/84
f 76/9/85 3/6/85 4/8/85
f 3/6/85 76/9/85 75/128/85
f 189/130/86 75/128/86 76/9/86
f 75/128/87 189/130/87 119/129/87
f 79/131/88 77/132/88 78/133/88
f 77/132/89 79/131/89 76/134/89
f 10/23/90 82/135/90 83/26/90
f 82/135/91 10/23/91 81/136/91
f 82/135/92 85/27/92 83/26/92
f 85/27/93 82/135/93 84/137/93
f 81/138/94 80/139/94 86/140/94
f 81/141/95 13/22/95 80/142/95
f 13/22/96 81/141/96 10/30/96
f 80/139/97 91/143/97 86/140/97
f 88/144/98 87/145/98 93/146/98
f 90/147/99 89/148/99 94/149/99
f 89/148/100 95/150/100 94/149/100
f 95/150/101 89/148/101 86/140/101
f 86/140/102 93/146/102 95/150/102
f 93/146/103 86/140/103 88/144/103
f 93/146/104 96/151/104 97/152/104
f 96/151/105 93/146/105 87/145/105
f 90/147/106 98/153/106 99/154/106
f 98/153/107 90/147/107 94/149/107
f 94/149/108 100/155/108 98/153/108
f 100/155/109 94/149/109 95/150/109
f 95/150/110 97/152/110 100/155/110
f 97/152/111 95/150/111 93/146/111
f 85/27/112 101/156/112 102/49/112
f 101/156/113 85/27/113 84/137/113
f 84/157/114 90/147/114 101/158/114
f 103/159/115 104/160/115 105/161/115
f 106/162/116 91/143/116 108/163/116
f 91/143/117 109/164/117 110/165/117
f 109/164/118 103/159/118 110/165/118
f 105/161/119 111/166/119 112/167/119
f 92/168/120 108/163/120 113/169/120
f 107/170/121 114/171/121 115/172/121
f 114/171/122 107/170/122 110/165/122
f 110/165/123 112/167/123 114/171/123
f 112/167/124 110/165/124 105/161/124
f 102/49/125 116/173/125 36/67/125
f 116/173/126 102/49/126 101/156/126
f 101/158/127 117/174/127 116/175/127
f 117/174/128 101/158/128 99/154/128
f 116/176/50 117/177/50 118/178/50
f 118/178/50 39/71/50 36/179/50
f 108/163/129 115/172/129 113/169/129
f 91/143/130 88/144/130 86/140/130
f 88/144/131 91/143/131 106/162/131
f 108/163/132 92/168/132 106/162/132
f 96/151/133 87/145/133 120/180/133
f 87/145/134 121/181/134 120/180/134
f 121/181/135 87/145/135 92/168/135
f 111/166/136 104/160/136 122/182/136
f 92/168/137 113/169/137 121/181/137
f 108/163/138 107/170/138 115/172/138
f 188/183/139 104/160/139 192/184/139
f 104/160/140 188/183/140 124/185/140
f 123/186/141 76/134/141 79/131/141
f 76/134/142 123/186/142 182/187/142
f 103/159/143 109/164/143 119/188/143
f 196/189/144 80/139/144 74/21/144
f 198/2/145 80/139/145 196/189/145
f 198/2/146 119/188/146 80/139/146
f 73/4/147 119/188/147 198/2/147
f 121/190/68 125/191/68 120/192/68
f 125/191/68 121/190/68 143/127/68
f 46/95/148 188/193/148 186/194/148
f 188/193/148 46/95/148 124/124/148
f 122/195/69 124/124/69 126/123/69
f 128/196/70 130/197/70 127/198/70
f 130/197/70 128/196/70 129/199/70
f 129/199/70 131/200/70 132/201/70
f 131/200/70 129/199/70 128/196/70
f 130/197/149 133/202/149 134/203/149
f 133/202/150 130/197/150 129/199/150
f 127/204/151 134/203/151 135/205/151
f 134/203/151 127/204/151 130/197/151
f 132/206/152 133/202/152 129/199/152
f 133/202/153 132/206/153 136/207/153
f 134/203/50 137/208/50 138/209/50
f 137/208/50 134/203/50 133/202/50
f 133/202/50 139/210/50 137/208/50
f 139/210/50 133/202/50 136/211/50
f 131/212/154 136/207/154 132/206/154
f 136/207/155 131/212/155 139/213/155
f 144/214/156 140/215/156 178/216/156
f 105/161/157 104/160/157 111/166/157
f 104/160/158 124/185/158 122/182/158
f 1/20/159 13/22/159 8/31/159
f 13/22/160 74/21/160 80/142/160
f 48/52/161 31/58/161 29/53/161
f 110/165/162 103/159/162 105/161/162
f 44/34/163 31/58/163 42/59/163
f 91/143/164 110/165/164 107/170/164
f 44/34/165 40/56/165 30/57/165
f 108/163/166 91/143/166 107/170/166
f 118/178/50 36/179/50 116/176/50
f 36/179/50 39/71/50 37/70/50
f 125/191/68 72/91/68 71/90/68
f 72/91/68 125/191/68 143/127/68
f 125/191/167 39/71/167 118/178/167
f 39/71/167 125/191/167 71/90/167
f 17/35/168 26/51/168 27/46/168
f 101/158/169 90/147/169 99/154/169
f 8/32/170 195/217/170 1/20/170
f 8/32/171 197/3/171 195/217/171
f 50/86/172 197/3/172 8/32/172
f 2/1/173 197/3/173 50/86/173
f 91/143/174 119/188/174 109/164/174
f 91/143/175 80/139/175 119/188/175
f 50/86/176 44/34/176 42/59/176
f 8/32/177 44/34/177 50/86/177
f 9/37/178 14/33/178 8/32/178
f 81/138/179 86/140/179 89/148/179
f 17/35/180 11/218/180 12/50/180
f 11/218/181 17/35/181 9/37/181
f 9/37/182 16/36/182 14/33/182
f 82/219/183 90/147/183 84/157/183
f 90/147/184 82/219/184 81/138/184
f 81/138/185 89/148/185 90/147/185
f 87/145/186 106/162/186 92/168/186
f 106/162/187 87/145/187 88/144/187
f 43/55/188 15/40/188 28/62/188
f 15/40/189 43/55/189 18/38/189
f 145/220/190 146/221/190 147/222/190
f 145/220/191 147/222/191 148/223/191
f 145/220/192 148/223/192 149/224/192
f 145/220/193 149/224/193 150/225/193
f 145/220/194 150/225/194 146/221/194
f 146/226/195 150/227/195 147/228/195
f 148/229/195 150/227/195 149/230/195
f 150/227/195 148/229/195 147/228/195
f 151/231/190 152/232/190 153/233/190
f 151/231/191 153/233/191 154/234/191
f 151/231/192 154/234/192 155/235/192
f 151/231/193 155/235/193 156/236/193
f 151/231/194 156/236/194 152/232/194
f 152/237/195 156/238/195 153/239/195
f 154/240/195 156/238/195 155/241/195
f 156/238/195 154/240/195 153/239/195
f 157/242/190 158/243/190 159/244/190
f 157/242/191 159/244/191 160/245/191
f 157/242/192 160/245/192 161/246/192
f 157/242/193 161/246/193 162/247/193
f 157/242/194 162/247/194 158/243/194
f 158/248/195 162/249/195 159/250/195
f 160/251/195 162/249/195 161/252/195
f 162/249/195 160/251/195 159/250/195
f 163/253/190 164/254/190 165/255/190
f 163/253/191 165/255/191 166/256/191
f 163/253/192 166/256/192 167/257/192
f 163/253/193 167/257/193 168/258/193
f 163/253/194 168/258/194 164/254/194
f 164/259/195 168/260/195 165/261/195
f 166/262/195 168/260/195 167/263/195
f 168/260/195 166/262/195 165/261/195
f 169/264/195 172/265/195 170/266/195
f 172/265/195 169/264/195 171/267/195
f 174/268/195 176/269/195 175/270/195
f 176/269/195 174/268/195 173/271/195
f 67/114/196 177/116/196 68/272/196
f 144/214/197 178/216/197 180/273/197
f 178/216/198 141/274/198 142/275/198
f 141/274/199 178/216/199 140/215/199
f 69/276/200 177/116/200 53/277/200
f 177/116/201 69/276/201 68/272/201
f 144/278/202 68/117/202 140/119/202
f 68/117/202 144/278/202 67/279/202
f 104/160/203 194/280/203 192/184/203
f 144/281/204 179/282/204 67/283/204
f 179/282/205 144/281/205 180/284/205
f 177/116/206 179/115/206 183/285/206
f 180/273/207 178/216/207 184/286/207
f 4/18/208 49/287/208 7/16/208
f 49/287/209 4/18/209 181/83/209
f 182/187/210 189/288/210 76/134/210
f 189/288/211 182/187/211 193/289/211
f 177/116/212 190/85/212 191/290/212
f 190/85/213 177/116/213 181/83/213
f 193/289/214 178/216/214 194/280/214
f 178/216/215 193/289/215 182/187/215
f 180/284/216 183/87/216 179/282/216
f 183/87/216 180/284/216 184/88/216
f 181/83/217 183/285/217 49/287/217
f 177/116/218 183/285/218 181/83/218
f 184/286/219 178/216/219 182/187/219
f 184/286/220 182/187/220 123/186/220
f 53/277/221 191/290/221 187/77/221
f 191/290/222 53/277/222 177/116/222
f 187/77/223 186/78/223 53/277/223
f 190/85/224 50/86/224 48/52/224
f 50/86/225 190/85/225 185/84/225
f 188/183/226 192/184/226 142/275/226
f 53/291/227 188/193/227 142/292/227
f 188/193/227 53/291/227 186/194/227
f 193/289/228 119/188/228 189/288/228
f 119/188/229 193/289/229 103/159/229
f 191/290/230 48/52/230 52/54/230
f 48/52/231 191/290/231 190/85/231
f 103/159/232 194/280/232 104/160/232
f 194/280/233 103/159/233 193/289/233
f 187/77/234 191/290/234 52/54/234
f 142/275/235 194/280/235 178/216/235
f 194/280/236 142/275/236 192/184/236
f 1/20/237 196/189/237 74/21/237
f 196/189/237 1/20/237 195/217/237
f 195/217/238 198/2/238 196/189/238
f 198/2/238 195/217/238 197/3/238
o escortwheel
v 80.219673 24.427872 -109.536636
v 80.219673 3.377782 -105.791832
v 80.219673 -15.154729 -116.453835
v 80.219673 -22.497932 -136.533920
v 80.219673 -15.216036 -156.636230
v 80.219673 3.283793 -167.354828
v 80.219673 24.345264 -163.674332
v 80.219673 38.113468 -147.316742
v 80.219673 38.146072 -125.936134
v 57.014076 24.427872 -109.536636
v 57.014076 3.377782 -105.791832
v 57.014076 -15.154729 -116.453835
v 57.014076 -22.497932 -136.533920
v 57.014076 -15.216036 -156.636337
v 57.014076 3.283793 -167.354828
v 57.014076 24.345264 -163.674332
v 57.014076 38.113468 -147.316742
v 57.014076 38.146072 -125.936134
vn -0.0000 0.9392 -0.3435
vn -0.0000 0.5013 0.8653
vn -0.0000 -0.7651 0.6440
vn -0.0000 -1.0000 0.0015
vn -0.0000 -0.7670 -0.6416
vn -1.0000 -0.0000 -0.0000
vn -0.0000 -0.1751 -0.9845
vn -0.0000 0.4987 -0.8668
vn -0.0000 0.9402 0.3406
vn -0.0000 -0.1721 0.9851
vn 1.0000 -0.0000 -0.0000
vt 0.957998 0.435321
vt 0.998358 0.435321
vt 0.998358 0.472155
vt 0.957998 0.472155
vt 0.957998 0.693168
vt 0.998358 0.693168
vt 0.998358 0.730003
vt 0.957998 0.730003
vt 0.957998 0.619496
vt 0.998358 0.619496
vt 0.998358 0.656332
vt 0.957998 0.656332
vt 0.957998 0.582660
vt 0.998358 0.582660
vt 0.957998 0.545825
vt 0.998358 0.545825
vt 0.519271 0.791739
vt 0.540915 0.829359
vt 0.533313 0.872090
vt 0.478510 0.776833
vt 0.500023 0.899937
vt 0.437703 0.791615
vt 0.456621 0.899871
vt 0.415945 0.829169
vt 0.423416 0.871923
vt 0.957998 0.508990
vt 0.998358 0.508990
vt 0.998358 0.766837
vt 0.957998 0.766837
vt 0.549722 0.868534
vt 0.598248 0.850788
vt 0.533006 0.964190
vt 0.523956 0.913320
vt 0.646827 0.868386
vt 0.572637 0.997342
vt 0.672730 0.913093
vt 0.624306 0.997263
vt 0.663836 0.963991
s 0
usemtl 01_-_Default
f 202/293/239 211/294/239 210/295/239
f 210/295/239 201/296/239 202/293/239
f 204/297/240 213/298/240 212/299/240
f 212/299/240 203/300/240 204/297/240
f 206/301/241 215/302/241 214/303/241
f 214/303/241 205/304/241 206/301/241
f 207/305/242 216/306/242 215/302/242
f 215/302/242 206/301/242 207/305/242
f 199/307/243 208/308/243 216/306/243
f 216/306/243 207/305/243 199/307/243
f 201/309/244 200/310/244 199/311/244
f 199/311/244 202/312/244 201/309/244
f 202/312/244 199/311/244 207/313/244
f 207/313/244 203/314/244 202/312/244
f 203/314/244 207/313/244 206/315/244
f 206/315/244 204/316/244 203/314/244
f 205/317/244 204/316/244 206/315/244
f 208/308/245 199/307/245 200/318/245
f 200/318/245 209/319/245 208/308/245
f 209/319/246 200/318/246 201/296/246
f 201/296/246 210/295/246 209/319/246
f 211/320/247 202/321/247 203/300/247
f 203/300/247 212/299/247 211/320/247
f 213/298/248 204/297/248 205/304/248
f 205/304/248 214/303/248 213/298/248
f 210/322/249 211/323/249 208/324/249
f 208/324/249 209/325/249 210/322/249
f 211/323/249 212/326/249 216/327/249
f 216/327/249 208/324/249 211/323/249
f 212/326/249 213/328/249 215/329/249
f 215/329/249 216/327/249 212/326/249
f 214/330/249 215/329/249 213/328/249
o escortwheel.002
v -80.004486 24.427872 136.114410
v -80.004486 3.377782 139.859222
v -80.004486 -15.154729 129.197205
v -80.004486 -22.497932 109.117126
v -80.004486 -15.216036 89.014816
v -80.004486 3.283793 78.296219
v -80.004486 24.345264 81.976715
v -80.004486 38.113468 98.334305
v -80.004486 38.146072 119.714912
v -56.798893 24.427872 136.114410
v -56.798893 3.377782 139.859222
v -56.798893 -15.154729 129.197205
v -56.798893 -22.497932 109.117126
v -56.798893 -15.216036 89.014709
v -56.798893 3.283793 78.296219
v -56.798893 24.345264 81.976715
v -56.798893 38.113468 98.334305
v -56.798893 38.146072 119.714912
vn -0.0000 0.9392 -0.3435
vn -0.0000 0.5013 0.8653
vn -0.0000 -0.7651 0.6440
vn -0.0000 -1.0000 0.0015
vn -0.0000 -0.7670 -0.6416
vn 1.0000 -0.0000 -0.0000
vn -0.0000 -0.1751 -0.9845
vn -0.0000 0.4987 -0.8668
vn -0.0000 0.9402 0.3406
vn -0.0000 -0.1721 0.9851
vn -1.0000 -0.0000 -0.0000
vt 0.957998 0.435321
vt 0.998358 0.435321
vt 0.998358 0.472155
vt 0.957998 0.472155
vt 0.957998 0.693168
vt 0.998358 0.693168
vt 0.998358 0.730003
vt 0.957998 0.730003
vt 0.957998 0.619496
vt 0.998358 0.619496
vt 0.998358 0.656332
vt 0.957998 0.656332
vt 0.957998 0.582660
vt 0.998358 0.582660
vt 0.957998 0.545825
vt 0.998358 0.545825
vt 0.519271 0.791739
vt 0.540915 0.829359
vt 0.533313 0.872090
vt 0.478510 0.776833
vt 0.500023 0.899937
vt 0.437703 0.791615
vt 0.456621 0.899871
vt 0.415945 0.829169
vt 0.423416 0.871923
vt 0.957998 0.508990
vt 0.998358 0.508990
vt 0.998358 0.766837
vt 0.957998 0.766837
vt 0.549722 0.868534
vt 0.598248 0.850788
vt 0.533006 0.964190
vt 0.523956 0.913320
vt 0.646827 0.868386
vt 0.572637 0.997342
vt 0.672730 0.913093
vt 0.624306 0.997263
vt 0.663836 0.963991
s 0
usemtl 01_-_Default.006
f 220/331/250 228/333/250 229/332/250
f 228/333/250 220/331/250 219/334/250
f 222/335/251 230/337/251 231/336/251
f 230/337/251 222/335/251 221/338/251
f 224/339/252 232/341/252 233/340/252
f 232/341/252 224/339/252 223/342/252
f 225/343/253 233/340/253 234/344/253
f 233/340/253 225/343/253 224/339/253
f 217/345/254 234/344/254 226/346/254
f 234/344/254 217/345/254 225/343/254
f 219/347/255 217/349/255 218/348/255
f 217/349/255 219/347/255 220/350/255
f 220/350/255 225/351/255 217/349/255
f 225/351/255 220/350/255 221/352/255
f 221/352/255 224/353/255 225/351/255
f 224/353/255 221/352/255 222/354/255
f 223/355/255 224/353/255 222/354/255
f 226/346/256 218/356/256 217/345/256
f 218/356/256 226/346/256 227/357/256
f 227/357/257 219/334/257 218/356/257
f 219/334/257 227/357/257 228/333/257
f 229/358/258 221/338/258 220/359/258
f 221/338/258 229/358/258 230/337/258
f 231/336/259 223/342/259 222/335/259
f 223/342/259 231/336/259 232/341/259
f 228/360/260 226/362/260 229/361/260
f 226/362/260 228/360/260 227/363/260
f 229/361/260 234/365/260 230/364/260
f 234/365/260 229/361/260 226/362/260
f 230/364/260 233/367/260 231/366/260
f 233/367/260 230/364/260 234/365/260
f 232/368/260 231/366/260 233/367/260
o escortwheel.001
v 80.219673 24.427872 136.114410
v 80.219673 3.377782 139.859222
v 80.219673 -15.154729 129.197205
v 80.219673 -22.497932 109.117126
v 80.219673 -15.216036 89.014816
v 80.219673 3.283793 78.296219
v 80.219673 24.345264 81.976715
v 80.219673 38.113468 98.334305
v 80.219673 38.146072 119.714912
v 57.014076 24.427872 136.114410
v 57.014076 3.377782 139.859222
v 57.014076 -15.154729 129.197205
v 57.014076 -22.497932 109.117126
v 57.014076 -15.216036 89.014709
v 57.014076 3.283793 78.296219
v 57.014076 24.345264 81.976715
v 57.014076 38.113468 98.334305
v 57.014076 38.146072 119.714912
vn -0.0000 0.9392 -0.3435
vn -0.0000 0.5013 0.8653
vn -0.0000 -0.7651 0.6440
vn -0.0000 -1.0000 0.0015
vn -0.0000 -0.7670 -0.6416
vn -1.0000 -0.0000 -0.0000
vn -0.0000 -0.1751 -0.9845
vn -0.0000 0.4987 -0.8668
vn -0.0000 0.9402 0.3406
vn -0.0000 -0.1721 0.9851
vn 1.0000 -0.0000 -0.0000
vt 0.957998 0.435321
vt 0.998358 0.435321
vt 0.998358 0.472155
vt 0.957998 0.472155
vt 0.957998 0.693168
vt 0.998358 0.693168
vt 0.998358 0.730003
vt 0.957998 0.730003
vt 0.957998 0.619496
vt 0.998358 0.619496
vt 0.998358 0.656332
vt 0.957998 0.656332
vt 0.957998 0.582660
vt 0.998358 0.582660
vt 0.957998 0.545825
vt 0.998358 0.545825
vt 0.519271 0.791739
vt 0.540915 0.829359
vt 0.533313 0.872090
vt 0.478510 0.776833
vt 0.500023 0.899937
vt 0.437703 0.791615
vt 0.456621 0.899871
vt 0.415945 0.829169
vt 0.423416 0.871923
vt 0.957998 0.508990
vt 0.998358 0.508990
vt 0.998358 0.766837
vt 0.957998 0.766837
vt 0.549722 0.868534
vt 0.598248 0.850788
vt 0.533006 0.964190
vt 0.523956 0.913320
vt 0.646827 0.868386
vt 0.572637 0.997342
vt 0.672730 0.913093
vt 0.624306 0.997263
vt 0.663836 0.963991
s 0
usemtl 01_-_Default.007
f 238/369/261 247/370/261 246/371/261
f 246/371/261 237/372/261 238/369/261
f 240/373/262 249/374/262 248/375/262
f 248/375/262 239/376/262 240/373/262
f 242/377/263 251/378/263 250/379/263
f 250/379/263 241/380/263 242/377/263
f 243/381/264 252/382/264 251/378/264
f 251/378/264 242/377/264 243/381/264
f 235/383/265 244/384/265 252/382/265
f 252/382/265 243/381/265 235/383/265
f 237/385/266 236/386/266 235/387/266
f 235/387/266 238/388/266 237/385/266
f 238/388/266 235/387/266 243/389/266
f 243/389/266 239/390/266 238/388/266
f 239/390/266 243/389/266 242/391/266
f 242/391/266 240/392/266 239/390/266
f 241/393/266 240/392/266 242/391/266
f 244/384/267 235/383/267 236/394/267
f 236/394/267 245/395/267 244/384/267
f 245/395/268 236/394/268 237/372/268
f 237/372/268 246/371/268 245/395/268
f 247/396/269 238/397/269 239/376/269
f 239/376/269 248/375/269 247/396/269
f 249/374/270 240/373/270 241/380/270
f 241/380/270 250/379/270 249/374/270
f 246/398/271 247/399/271 244/400/271
f 244/400/271 245/401/271 246/398/271
f 247/399/271 248/402/271 252/403/271
f 252/403/271 244/400/271 247/399/271
f 248/402/271 249/404/271 251/405/271
f 251/405/271 252/403/271 248/402/271
f 250/406/271 251/405/271 249/404/271
o escortwheel.003
v -80.366806 24.427872 -109.536636
v -80.366806 3.377782 -105.791832
v -80.366806 -15.154729 -116.453835
v -80.366806 -22.497932 -136.533920
v -80.366806 -15.216036 -156.636230
v -80.366806 3.283793 -167.354828
v -80.366806 24.345264 -163.674332
v -80.366806 38.113468 -147.316742
v -80.366806 38.146072 -125.936134
v -57.161209 24.427872 -109.536636
v -57.161209 3.377782 -105.791832
v -57.161209 -15.154729 -116.453835
v -57.161209 -22.497932 -136.533920
v -57.161209 -15.216036 -156.636337
v -57.161209 3.283793 -167.354828
v -57.161209 24.345264 -163.674332
v -57.161209 38.113468 -147.316742
v -57.161209 38.146072 -125.936134
vn -0.0000 0.9392 -0.3435
vn -0.0000 0.5013 0.8653
vn -0.0000 -0.7651 0.6440
vn -0.0000 -1.0000 0.0015
vn -0.0000 -0.7670 -0.6416
vn 1.0000 -0.0000 -0.0000
vn -0.0000 -0.1751 -0.9845
vn -0.0000 0.4987 -0.8668
vn -0.0000 0.9402 0.3406
vn -0.0000 -0.1721 0.9851
vn -1.0000 -0.0000 -0.0000
vt 0.957998 0.435321
vt 0.998358 0.435321
vt 0.998358 0.472155
vt 0.957998 0.472155
vt 0.957998 0.693168
vt 0.998358 0.693168
vt 0.998358 0.730003
vt 0.957998 0.730003
vt 0.957998 0.619496
vt 0.998358 0.619496
vt 0.998358 0.656332
vt 0.957998 0.656332
vt 0.957998 0.582660
vt 0.998358 0.582660
vt 0.957998 0.545825
vt 0.998358 0.545825
vt 0.519271 0.791739
vt 0.540915 0.829359
vt 0.533313 0.872090
vt 0.478510 0.776833
vt 0.500023 0.899937
vt 0.437703 0.791615
vt 0.456621 0.899871
vt 0.415945 0.829169
vt 0.423416 0.871923
vt 0.957998 0.508990
vt 0.998358 0.508990
vt 0.998358 0.766837
vt 0.957998 0.766837
vt 0.549722 0.868534
vt 0.598248 0.850788
vt 0.533006 0.964190
vt 0.523956 0.913320
vt 0.646827 0.868386
vt 0.572637 0.997342
vt 0.672730 0.913093
vt 0.624306 0.997263
vt 0.663836 0.963991
s 0
usemtl 01_-_Default.008
f 256/407/272 264/409/272 265/408/272
f 264/409/272 256/407/272 255/410/272
f 258/411/273 266/413/273 267/412/273
f 266/413/273 258/411/273 257/414/273
f 260/415/274 268/417/274 269/416/274
f 268/417/274 260/415/274 259/418/274
f 261/419/275 269/416/275 270/420/275
f 269/416/275 261/419/275 260/415/275
f 253/421/276 270/420/276 262/422/276
f 270/420/276 253/421/276 261/419/276
f 255/423/277 253/425/277 254/424/277
f 253/425/277 255/423/277 256/426/277
f 256/426/277 261/427/277 253/425/277
f 261/427/277 256/426/277 257/428/277
f 257/428/277 260/429/277 261/427/277
f 260/429/277 257/428/277 258/430/277
f 259/431/277 260/429/277 258/430/277
f 262/422/278 254/432/278 253/421/278
f 254/432/278 262/422/278 263/433/278
f 263/433/279 255/410/279 254/432/279
f 255/410/279 263/433/279 264/409/279
f 265/434/280 257/414/280 256/435/280
f 257/414/280 265/434/280 266/413/280
f 267/412/281 259/418/281 258/411/281
f 259/418/281 267/412/281 268/417/281
f 264/436/282 262/438/282 265/437/282
f 262/438/282 264/436/282 263/439/282
f 265/437/282 270/441/282 266/440/282
f 270/441/282 265/437/282 262/438/282
f 266/440/282 269/443/282 267/442/282
f 269/443/282 266/440/282 270/441/282
f 268/444/282 267/442/282 269/443/282
