{
  "accessors": [
    {
      "bufferView": 2,
      "componentType": 5126,
      "count": 334,
      "max": [
        0.4071899950504303,
        1.9446200132369995,
        0.3355009853839874
      ],
      "min": [
        0.2609019875526428,
        1.3504600524902344,
        0.1816840022802353
      ],
      "type": "VEC3"
    },
    {
      "bufferView": 2,
      "byteOffset": 4008,
      "componentType": 5126,
      "count": 334,
      "max": [
        0.9787925481796265,
        1.0,
        0.9941592216491699
      ],
      "min": [
        -0.9787898659706116,
        -1.0,
        -0.9942631125450134
      ],
      "type": "VEC3"
    },
    {
      "bufferView": 1,
      "componentType": 5126,
      "count": 334,
      "max": [
        5.129509925842285,
        4.20635986328125
      ],
      "min": [
        -5.129350185394287,
        -19.707500457763672
      ],
      "type": "VEC2"
    },
    {
      "bufferView": 0,
      "componentType": 5125,
      "count": 444,
      "type": "SCALAR"
    },
    {
      "bufferView": 2,
      "byteOffset": 8016,
      "componentType": 5126,
      "count": 3512,
      "max": [
        0.8090940117835999,
        1.9500499963760376,
        1.51882004737854
      ],
      "min": [
        -0.8090130090713501,
        -1.971850037574768,
        0.20791800320148468
      ],
      "type": "VEC3"
    },
    {
      "bufferView": 2,
      "byteOffset": 50160,
      "componentType": 5126,
      "count": 3512,
      "max": [
        0.9999312162399292,
        1.0,
        0.9818032383918762
      ],
      "min": [
        -0.9999393820762634,
        -1.0,
        -0.9954411387443542
      ],
      "type": "VEC3"
    },
    {
      "bufferView": 1,
      "byteOffset": 2672,
      "componentType": 5126,
      "count": 3512,
      "max": [
        152.52099609375,
        162.75100708007813
      ],
      "min": [
        -152.1580047607422,
        -61.152099609375
      ],
      "type": "VEC2"
    },
    {
      "bufferView": 0,
      "byteOffset": 1776,
      "componentType": 5125,
      "count": 3876,
      "type": "SCALAR"
    },
    {
      "bufferView": 2,
      "byteOffset": 92304,
      "componentType": 5126,
      "count": 84,
      "max": [
        0.9192209839820862,
        -0.49508801102638245,
        0.9791269898414612
      ],
      "min": [
        -0.9192209839820862,
        -0.5371119976043701,
        0.8679649829864502
      ],
      "type": "VEC3"
    },
    {
      "bufferView": 2,
      "byteOffset": 93312,
      "componentType": 5126,
      "count": 84,
      "max": [
        0.26824790239334106,
        0.9758508801460266,
        0.0850701779127121
      ],
      "min": [
        -0.26824790239334106,
        0.9607176184654236,
        -0.03678012266755104
      ],
      "type": "VEC3"
    },
    {
      "bufferView": 1,
      "byteOffset": 30768,
      "componentType": 5126,
      "count": 84,
      "max": [
        0.0773463025689125,
        1.495669960975647
      ],
      "min": [
        -5.460899829864502,
        -7.011169910430908
      ],
      "type": "VEC2"
    },
    {
      "bufferView": 0,
      "byteOffset": 17280,
      "componentType": 5125,
      "count": 84,
      "type": "SCALAR"
    },
    {
      "bufferView": 2,
      "byteOffset": 94320,
      "componentType": 5126,
      "count": 9402,
      "max": [
        0.7342119812965393,
        0.7898769974708557,
        1.105139970779419
      ],
      "min": [
        -0.7342119812965393,
        -0.8245400190353394,
        0.20756499469280243
      ],
      "type": "VEC3"
    },
    {
      "bufferView": 2,
      "byteOffset": 207144,
      "componentType": 5126,
      "count": 9402,
      "max": [
        1.0,
        1.0,
        1.0
      ],
      "min": [
        -1.0,
        -1.0,
        -1.0
      ],
      "type": "VEC3"
    },
    {
      "bufferView": 1,
      "byteOffset": 31440,
      "componentType": 5126,
      "count": 9402,
      "max": [
        1548.2900390625,
        1206.6700439453125
      ],
      "min": [
        -1552.8399658203125,
        -2988.25
      ],
      "type": "VEC2"
    },
    {
      "bufferView": 0,
      "byteOffset": 17616,
      "componentType": 5125,
      "count": 11256,
      "type": "SCALAR"
    },
    {
      "bufferView": 2,
      "byteOffset": 319968,
      "componentType": 5126,
      "count": 28876,
      "max": [
        0.46771499514579773,
        -0.2644079923629761,
        0.9925659894943237
      ],
      "min": [
        0.13422200083732605,
        -0.40057799220085144,
        0.6823880076408386
      ],
      "type": "VEC3"
    },
    {
      "bufferView": 2,
      "byteOffset": 666480,
      "componentType": 5126,
      "count": 28876,
      "max": [
        1.0,
        0.9992762207984924,
        0.999878466129303
      ],
      "min": [
        -1.0,
        -0.9998120069503784,
        -0.9998763799667358
      ],
      "type": "VEC3"
    },
    {
      "bufferView": 1,
      "byteOffset": 106656,
      "componentType": 5126,
      "count": 28876,
      "max": [
        2082.639892578125,
        1735.1400146484375
      ],
      "min": [
        -2066.5400390625,
        -3244.530029296875
      ],
      "type": "VEC2"
    },
    {
      "bufferView": 0,
      "byteOffset": 62640,
      "componentType": 5125,
      "count": 32088,
      "type": "SCALAR"
    },
    {
      "bufferView": 2,
      "byteOffset": 1012992,
      "componentType": 5126,
      "count": 5342,
      "max": [
        0.7342119812965393,
        1.266950011253357,
        1.3653899431228638
      ],
      "min": [
        -0.7342119812965393,
        -0.845300018787384,
        0.20756499469280243
      ],
      "type": "VEC3"
    },
    {
      "bufferView": 2,
      "byteOffset": 1077096,
      "componentType": 5126,
      "count": 5342,
      "max": [
        1.0,
        1.0,
        1.0
      ],
      "min": [
        -1.0,
        -1.0,
        -1.0
      ],
      "type": "VEC3"
    },
    {
      "bufferView": 1,
      "byteOffset": 337664,
      "componentType": 5126,
      "count": 5342,
      "max": [
        267.9670104980469,
        433.5880126953125
      ],
      "min": [
        -277.34100341796875,
        -44.99250030517578
      ],
      "type": "VEC2"
    },
    {
      "bufferView": 0,
      "byteOffset": 190992,
      "componentType": 5125,
      "count": 6723,
      "type": "SCALAR"
    },
    {
      "bufferView": 2,
      "byteOffset": 1141200,
      "componentType": 5126,
      "count": 378,
      "max": [
        0.05356309935450554,
        1.9502500295639038,
        0.7851979732513428
      ],
      "min": [
        -0.6354010105133057,
        -1.9751499891281128,
        0.560142993927002
      ],
      "type": "VEC3"
    },
    {
      "bufferView": 2,
      "byteOffset": 1145736,
      "componentType": 5126,
      "count": 378,
      "max": [
        0.3275870382785797,
        0.9999463558197021,
        0.460280179977417
      ],
      "min": [
        -0.4154379963874817,
        -0.9998477697372437,
        -0.3256531059741974
      ],
      "type": "VEC3"
    },
    {
      "bufferView": 1,
      "byteOffset": 380400,
      "componentType": 5126,
      "count": 378,
      "max": [
        0.8940230011940002,
        0.8225200176239014
      ],
      "min": [
        0.10597699880599976,
        0.1829729974269867
      ],
      "type": "VEC2"
    },
    {
      "bufferView": 0,
      "byteOffset": 217884,
      "componentType": 5125,
      "count": 1152,
      "type": "SCALAR"
    },
    {
      "bufferView": 2,
      "byteOffset": 1150272,
      "componentType": 5126,
      "count": 826,
      "max": [
        0.7342119812965393,
        1.136970043182373,
        0.8730990290641785
      ],
      "min": [
        -0.7342119812965393,
        -0.7098749876022339,
        0.22188800573349
      ],
      "type": "VEC3"
    },
    {
      "bufferView": 2,
      "byteOffset": 1160184,
      "componentType": 5126,
      "count": 826,
      "max": [
        1.0,
        1.0,
        1.0
      ],
      "min": [
        -1.0,
        -1.0,
        -1.0
      ],
      "type": "VEC3"
    },
    {
      "bufferView": 1,
      "byteOffset": 383424,
      "componentType": 5126,
      "count": 826,
      "max": [
        30.919700622558594,
        10.502099990844727
      ],
      "min": [
        -30.919700622558594,
        -37.580101013183594
      ],
      "type": "VEC2"
    },
    {
      "bufferView": 0,
      "byteOffset": 222492,
      "componentType": 5125,
      "count": 1248,
      "type": "SCALAR"
    },
    {
      "bufferView": 2,
      "byteOffset": 1170096,
      "componentType": 5126,
      "count": 26179,
      "max": [
        0.4181239902973175,
        -0.3134849965572357,
        0.8736879825592041
      ],
      "min": [
        0.1838120073080063,
        -0.3991209864616394,
        0.7467700242996216
      ],
      "type": "VEC3"
    },
    {
      "bufferView": 2,
      "byteOffset": 1484244,
      "componentType": 5126,
      "count": 26179,
      "max": [
        0.9998823404312134,
        0.9997338652610779,
        0.9995293617248535
      ],
      "min": [
        -1.0,
        -0.9967702627182007,
        -0.9955572485923767
      ],
      "type": "VEC3"
    },
    {
      "bufferView": 1,
      "byteOffset": 390032,
      "componentType": 5126,
      "count": 26179,
      "max": [
        1943.260009765625,
        1361.449951171875
      ],
      "min": [
        -1947.8299560546875,
        -3078.570068359375
      ],
      "type": "VEC2"
    },
    {
      "bufferView": 0,
      "byteOffset": 227484,
      "componentType": 5125,
      "count": 29817,
      "type": "SCALAR"
    },
    {
      "bufferView": 2,
      "byteOffset": 1798392,
      "componentType": 5126,
      "count": 406,
      "max": [
        0.7236700057983398,
        0.46977299451828003,
        0.6816959977149963
      ],
      "min": [
        -0.7236700057983398,
        -0.7098749876022339,
        0.21988800168037415
      ],
      "type": "VEC3"
    },
    {
      "bufferView": 2,
      "byteOffset": 1803264,
      "componentType": 5126,
      "count": 406,
      "max": [
        1.0,
        1.0,
        1.0
      ],
      "min": [
        -1.0,
        -1.0,
        -1.0
      ],
      "type": "VEC3"
    },
    {
      "bufferView": 1,
      "byteOffset": 599464,
      "componentType": 5126,
      "count": 406,
      "max": [
        30.50469970703125,
        24.96940040588379
      ],
      "min": [
        -30.50469970703125,
        -37.580101013183594
      ],
      "type": "VEC2"
    },
    {
      "bufferView": 0,
      "byteOffset": 346752,
      "componentType": 5125,
      "count": 711,
      "type": "SCALAR"
    },
    {
      "bufferView": 2,
      "byteOffset": 1808136,
      "componentType": 5126,
      "count": 3849,
      "max": [
        0.9147549867630005,
        2.0254299640655518,
        1.3437199592590332
      ],
      "min": [
        -0.9147549867630005,
        -2.0494399070739746,
        0.28624600172042847
      ],
      "type": "VEC3"
    },
    {
      "bufferView": 2,
      "byteOffset": 1854324,
      "componentType": 5126,
      "count": 3849,
      "max": [
        0.563607931137085,
        1.0,
        0.9999925494194031
      ],
      "min": [
        -0.563607931137085,
        -0.9911714792251587,
        -0.9163907766342163
      ],
      "type": "VEC3"
    },
    {
      "bufferView": 1,
      "byteOffset": 602712,
      "componentType": 5126,
      "count": 3849,
      "max": [
        61.78350067138672,
        139.23399353027344
      ],
      "min": [
        -56.312599182128906,
        -159.4550018310547
      ],
      "type": "VEC2"
    },
    {
      "bufferView": 0,
      "byteOffset": 349596,
      "componentType": 5125,
      "count": 4026,
      "type": "SCALAR"
    },
    {
      "bufferView": 2,
      "byteOffset": 1900512,
      "componentType": 5126,
      "count": 6831,
      "max": [
        0.8449770212173462,
        1.9346200227737427,
        1.328029990196228
      ],
      "min": [
        -4.484470082388725e-06,
        -1.9859199523925781,
        0.22701400518417358
      ],
      "type": "VEC3"
    },
    {
      "bufferView": 2,
      "byteOffset": 1982484,
      "componentType": 5126,
      "count": 6831,
      "max": [
        0.9999992251396179,
        0.9647619724273682,
        1.0
      ],
      "min": [
        -0.8968018889427185,
        -0.9998912215232849,
        -0.9995788931846619
      ],
      "type": "VEC3"
    },
    {
      "bufferView": 1,
      "byteOffset": 633504,
      "componentType": 5126,
      "count": 6831,
      "max": [
        106.45999908447266,
        203.375
      ],
      "min": [
        -136.52000427246094,
        -194.85499572753906
      ],
      "type": "VEC2"
    },
    {
      "bufferView": 0,
      "byteOffset": 365700,
      "componentType": 5125,
      "count": 7299,
      "type": "SCALAR"
    },
    {
      "bufferView": 2,
      "byteOffset": 2064456,
      "componentType": 5126,
      "count": 6831,
      "max": [
        4.484470082388725e-06,
        1.9346200227737427,
        1.328029990196228
      ],
      "min": [
        -0.8449770212173462,
        -1.9859199523925781,
        0.22701400518417358
      ],
      "type": "VEC3"
    },
    {
      "bufferView": 2,
      "byteOffset": 2146428,
      "componentType": 5126,
      "count": 6831,
      "max": [
        0.8968018889427185,
        0.9647619724273682,
        1.0
      ],
      "min": [
        -0.9999992251396179,
        -0.9998912215232849,
        -0.9995788931846619
      ],
      "type": "VEC3"
    },
    {
      "bufferView": 1,
      "byteOffset": 688152,
      "componentType": 5126,
      "count": 6831,
      "max": [
        106.45999908447266,
        203.375
      ],
      "min": [
        -136.52000427246094,
        -194.85499572753906
      ],
      "type": "VEC2"
    },
    {
      "bufferView": 0,
      "byteOffset": 394896,
      "componentType": 5125,
      "count": 7299,
      "type": "SCALAR"
    },
    {
      "bufferView": 2,
      "byteOffset": 2228400,
      "componentType": 5126,
      "count": 6628,
      "max": [
        0.8412870168685913,
        1.9617300033569336,
        1.3270299434661865
      ],
      "min": [
        -0.8412870168685913,
        -1.8980599641799927,
        0.1899469941854477
      ],
      "type": "VEC3"
    },
    {
      "bufferView": 2,
      "byteOffset": 2307936,
      "componentType": 5126,
      "count": 6628,
      "max": [
        1.0,
        1.0,
        1.0
      ],
      "min": [
        -1.0,
        -1.0,
        -1.0
      ],
      "type": "VEC3"
    },
    {
      "bufferView": 1,
      "byteOffset": 742800,
      "componentType": 5126,
      "count": 6628,
      "max": [
        117915.0,
        188497.0
      ],
      "min": [
        -117915.0,
        -194057.0
      ],
      "type": "VEC2"
    },
    {
      "bufferView": 0,
      "byteOffset": 424092,
      "componentType": 5125,
      "count": 8202,
      "type": "SCALAR"
    },
    {
      "bufferView": 2,
      "byteOffset": 2387472,
      "componentType": 5126,
      "count": 264,
      "max": [
        0.059925999492406845,
        1.9483000040054321,
        0.7883729934692383
      ],
      "min": [
        -0.6400899887084961,
        -1.9691599607467651,
        0.5554670095443726
      ],
      "type": "VEC3"
    },
    {
      "bufferView": 2,
      "byteOffset": 2390640,
      "componentType": 5126,
      "count": 264,
      "max": [
        0.9177138805389404,
        0.8032998442649841,
        0.8876183032989502
      ],
      "min": [
        -0.9509996175765991,
        -0.7361161708831787,
        -0.7397083640098572
      ],
      "type": "VEC3"
    },
    {
      "bufferView": 1,
      "byteOffset": 795824,
      "componentType": 5126,
      "count": 264,
      "max": [
        4.9865498542785645,
        3.587860107421875
      ],
      "min": [
        -0.44759100675582886,
        -2.3371200561523438
      ],
      "type": "VEC2"
    },
    {
      "bufferView": 0,
      "byteOffset": 456900,
      "componentType": 5125,
      "count": 264,
      "type": "SCALAR"
    },
    {
      "bufferView": 2,
      "byteOffset": 2393808,
      "componentType": 5126,
      "count": 1814,
      "max": [
        0.07370959967374802,
        2.0617799758911133,
        0.9706659913063049
      ],
      "min": [
        -0.8124300241470337,
        -0.9057850241661072,
        0.35359999537467957
      ],
      "type": "VEC3"
    },
    {
      "bufferView": 2,
      "byteOffset": 2415576,
      "componentType": 5126,
      "count": 1814,
      "max": [
        1.0,
        1.0,
        1.0
      ],
      "min": [
        -1.0,
        -1.0,
        -1.0
      ],
      "type": "VEC3"
    },
    {
      "bufferView": 1,
      "byteOffset": 797936,
      "componentType": 5126,
      "count": 1814,
      "max": [
        946.7940063476563,
        1270.780029296875
      ],
      "min": [
        -982.5549926757813,
        -2145.760009765625
      ],
      "type": "VEC2"
    },
    {
      "bufferView": 0,
      "byteOffset": 457956,
      "componentType": 5125,
      "count": 1956,
      "type": "SCALAR"
    },
    {
      "bufferView": 2,
      "byteOffset": 2437344,
      "componentType": 5126,
      "count": 21569,
      "max": [
        -0.16479100286960602,
        -1.968000054359436,
        0.6491209864616394
      ],
      "min": [
        -0.30720698833465576,
        -2.0460500717163086,
        0.5066869854927063
      ],
      "type": "VEC3"
    },
    {
      "bufferView": 2,
      "byteOffset": 2696172,
      "componentType": 5126,
      "count": 21569,
      "max": [
        0.9988729953765869,
        1.0,
        0.9997154474258423
      ],
      "min": [
        -0.9986801147460938,
        -0.9998279809951782,
        -0.9997180104255676
      ],
      "type": "VEC3"
    },
    {
      "bufferView": 1,
      "byteOffset": 812448,
      "componentType": 5126,
      "count": 21569,
      "max": [
        10.71090030670166,
        18.161300659179688
      ],
      "min": [
        -10.785200119018555,
        -18.584299087524414
      ],
      "type": "VEC2"
    },
    {
      "bufferView": 0,
      "byteOffset": 465780,
      "componentType": 5125,
      "count": 21570,
      "type": "SCALAR"
    },
    {
      "bufferView": 2,
      "byteOffset": 2955000,
      "componentType": 5126,
      "count": 9358,
      "max": [
        0.7161790132522583,
        2.0421600341796875,
        1.3776099681854248
      ],
      "min": [
        -0.7161800265312195,
        -2.0617799758911133,
        0.3352400064468384
      ],
      "type": "VEC3"
    },
    {
      "bufferView": 2,
      "byteOffset": 3067296,
      "componentType": 5126,
      "count": 9358,
      "max": [
        1.0,
        1.0,
        1.0
      ],
      "min": [
        -1.0,
        -1.0,
        -1.0
      ],
      "type": "VEC3"
    },
    {
      "bufferView": 1,
      "byteOffset": 985000,
      "componentType": 5126,
      "count": 9358,
      "max": [
        1381.3199462890625,
        2018.4000244140625
      ],
      "min": [
        -1381.3199462890625,
        -2246.75
      ],
      "type": "VEC2"
    },
    {
      "bufferView": 0,
      "byteOffset": 552060,
      "componentType": 5125,
      "count": 10338,
      "type": "SCALAR"
    },
    {
      "bufferView": 2,
      "byteOffset": 3179592,
      "componentType": 5126,
      "count": 9988,
      "max": [
        0.9258310198783875,
        2.0348598957061768,
        1.2987699508666992
      ],
      "min": [
        -0.8163449764251709,
        -2.0617799758911133,
        0.13650299608707428
      ],
      "type": "VEC3"
    },
    {
      "bufferView": 2,
      "byteOffset": 3299448,
      "componentType": 5126,
      "count": 9988,
      "max": [
        1.0,
        1.0,
        1.0
      ],
      "min": [
        -1.0,
        -1.0,
        -1.0
      ],
      "type": "VEC3"
    },
    {
      "bufferView": 1,
      "byteOffset": 1059864,
      "componentType": 5126,
      "count": 9988,
      "max": [
        1201.5899658203125,
        2009.9599609375
      ],
      "min": [
        -1236.5799560546875,
        -2009.699951171875
      ],
      "type": "VEC2"
    },
    {
      "bufferView": 0,
      "byteOffset": 593412,
      "componentType": 5125,
      "count": 10569,
      "type": "SCALAR"
    },
    {
      "bufferView": 2,
      "byteOffset": 3419304,
      "componentType": 5126,
      "count": 182,
      "max": [
        0.3918220102787018,
        2.0617799758911133,
        0.5192760229110718
      ],
      "min": [
        0.3005790114402771,
        1.9412000179290771,
        0.35359999537467957
      ],
      "type": "VEC3"
    },
    {
      "bufferView": 2,
      "byteOffset": 3421488,
      "componentType": 5126,
      "count": 182,
      "max": [
        0.9999375343322754,
        1.0,
        0.9774394631385803
      ],
      "min": [
        -1.0,
        -0.0,
        -0.9683074951171875
      ],
      "type": "VEC3"
    },
    {
      "bufferView": 1,
      "byteOffset": 1139768,
      "componentType": 5126,
      "count": 182,
      "max": [
        6.140200138092041,
        5.923709869384766
      ],
      "min": [
        -6.133230209350586,
        -1.5274399518966675
      ],
      "type": "VEC2"
    },
    {
      "bufferView": 0,
      "byteOffset": 635688,
      "componentType": 5125,
      "count": 198,
      "type": "SCALAR"
    },
    {
      "bufferView": 2,
      "byteOffset": 3423672,
      "componentType": 5126,
      "count": 21569,
      "max": [
        0.30720698833465576,
        -1.968000054359436,
        0.6491209864616394
      ],
      "min": [
        0.16479100286960602,
        -2.0460500717163086,
        0.5066869854927063
      ],
      "type": "VEC3"
    },
    {
      "bufferView": 2,
      "byteOffset": 3682500,
      "componentType": 5126,
      "count": 21569,
      "max": [
        0.9986801147460938,
        1.0,
        0.9997154474258423
      ],
      "min": [
        -0.9988729953765869,
        -0.9998279809951782,
        -0.9997180104255676
      ],
      "type": "VEC3"
    },
    {
      "bufferView": 1,
      "byteOffset": 1141224,
      "componentType": 5126,
      "count": 21569,
      "max": [
        10.71090030670166,
        18.161300659179688
      ],
      "min": [
        -10.785200119018555,
        -18.584299087524414
      ],
      "type": "VEC2"
    },
    {
      "bufferView": 0,
      "byteOffset": 636480,
      "componentType": 5125,
      "count": 21570,
      "type": "SCALAR"
    },
    {
      "bufferView": 2,
      "byteOffset": 3941328,
      "componentType": 5126,
      "count": 6951,
      "max": [
        0.634103000164032,
        1.9680999517440796,
        1.2987699508666992
      ],
      "min": [
        -0.9258310198783875,
        -2.056299924850464,
        0.13650299608707428
      ],
      "type": "VEC3"
    },
    {
      "bufferView": 2,
      "byteOffset": 4024740,
      "componentType": 5126,
      "count": 6951,
      "max": [
        1.0,
        1.0,
        1.0
      ],
      "min": [
        -1.0,
        -1.0,
        -1.0
      ],
      "type": "VEC3"
    },
    {
      "bufferView": 1,
      "byteOffset": 1313776,
      "componentType": 5126,
      "count": 6951,
      "max": [
        44.47489929199219,
        84.35759735107422
      ],
      "min": [
        -34.55400085449219,
        -29.736400604248047
      ],
      "type": "VEC2"
    },
    {
      "bufferView": 0,
      "byteOffset": 722760,
      "componentType": 5125,
      "count": 8427,
      "type": "SCALAR"
    },
    {
      "bufferView": 2,
      "byteOffset": 4108152,
      "componentType": 5126,
      "count": 7480,
      "max": [
        0.8034819960594177,
        1.418239951133728,
        0.5573480129241943
      ],
      "min": [
        -0.803400993347168,
        -1.5262099504470825,
        1.2105400237771846e-08
      ],
      "type": "VEC3"
    },
    {
      "bufferView": 2,
      "byteOffset": 4197912,
      "componentType": 5126,
      "count": 7480,
      "max": [
        0.9999977350234985,
        0.9999323487281799,
        0.9994679093360901
      ],
      "min": [
        -0.9999977350234985,
        -0.9999323487281799,
        -0.9999323487281799
      ],
      "type": "VEC3"
    },
    {
      "bufferView": 1,
      "byteOffset": 1369384,
      "componentType": 5126,
      "count": 7480,
      "max": [
        0.9765869975090027,
        0.9728779792785645
      ],
      "min": [
        0.023414799943566322,
        -0.3656589984893799
      ],
      "type": "VEC2"
    },
    {
      "bufferView": 0,
      "byteOffset": 756468,
      "componentType": 5125,
      "count": 31248,
      "type": "SCALAR"
    },
    {
      "bufferView": 2,
      "byteOffset": 4287672,
      "componentType": 5126,
      "count": 2284,
      "max": [
        0.6567760109901428,
        -1.7768700122833252,
        0.6542800068855286
      ],
      "min": [
        -0.6567760109901428,
        -1.9552700519561768,
        0.49762600660324097
      ],
      "type": "VEC3"
    },
    {
      "bufferView": 2,
      "byteOffset": 4315080,
      "componentType": 5126,
      "count": 2284,
      "max": [
        0.9676349759101868,
        0.9705038666725159,
        0.996292233467102
      ],
      "min": [
        -0.9676349759101868,
        -0.9910776615142822,
        -0.9792024493217468
      ],
      "type": "VEC3"
    },
    {
      "bufferView": 1,
      "byteOffset": 1429224,
      "componentType": 5126,
      "count": 2284,
      "max": [
        1.0808700323104858,
        1.1692800521850586
      ],
      "min": [
        -1.0761899948120117,
        -1.0898699760437012
      ],
      "type": "VEC2"
    },
    {
      "bufferView": 0,
      "byteOffset": 881460,
      "componentType": 5125,
      "count": 2676,
      "type": "SCALAR"
    },
    {
      "bufferView": 2,
      "byteOffset": 4342488,
      "componentType": 5126,
      "count": 123,
      "max": [
        0.7208359837532043,
        -1.7457499504089355,
        0.6535279750823975
      ],
      "min": [
        0.657480001449585,
        -1.876330018043518,
        0.49950700998306274
      ],
      "type": "VEC3"
    },
    {
      "bufferView": 2,
      "byteOffset": 4343964,
      "componentType": 5126,
      "count": 123,
      "max": [
        0.997908890247345,
        -0.01888669840991497,
        0.9582712650299072
      ],
      "min": [
        0.18252000212669373,
        -0.8900124430656433,
        -0.756308376789093
      ],
      "type": "VEC3"
    },
    {
      "bufferView": 1,
      "byteOffset": 1447496,
      "componentType": 5126,
      "count": 123,
      "max": [
        1.4193799495697021,
        0.4799419939517975
      ],
      "min": [
        -1.2733700275421143,
        -1.159690022468567
      ],
      "type": "VEC2"
    },
    {
      "bufferView": 0,
      "byteOffset": 892164,
      "componentType": 5125,
      "count": 123,
      "type": "SCALAR"
    },
    {
      "bufferView": 2,
      "byteOffset": 4345440,
      "componentType": 5126,
      "count": 15733,
      "max": [
        0.30435800552368164,
        -1.969480037689209,
        0.6462720036506653
      ],
      "min": [
        0.16763900220394135,
        -2.0407700538635254,
        0.509535014629364
      ],
      "type": "VEC3"
    },
    {
      "bufferView": 2,
      "byteOffset": 4534236,
      "componentType": 5126,
      "count": 15733,
      "max": [
        0.9986801147460938,
        1.0,
        0.9997154474258423
      ],
      "min": [
        -0.9986787438392639,
        -0.1395169496536255,
        -0.9997180104255676
      ],
      "type": "VEC3"
    },
    {
      "bufferView": 1,
      "byteOffset": 1448480,
      "componentType": 5126,
      "count": 15733,
      "max": [
        0.27900201082229614,
        0.39017799496650696
      ],
      "min": [
        -0.28220099210739136,
        -0.26677200198173523
      ],
      "type": "VEC2"
    },
    {
      "bufferView": 0,
      "byteOffset": 892656,
      "componentType": 5125,
      "count": 15735,
      "type": "SCALAR"
    },
    {
      "bufferView": 2,
      "byteOffset": 4723032,
      "componentType": 5126,
      "count": 123,
      "max": [
        -0.657480001449585,
        -1.7457499504089355,
        0.6535279750823975
      ],
      "min": [
        -0.7208359837532043,
        -1.876330018043518,
        0.49950700998306274
      ],
      "type": "VEC3"
    },
    {
      "bufferView": 2,
      "byteOffset": 4724508,
      "componentType": 5126,
      "count": 123,
      "max": [
        -0.18252000212669373,
        -0.01888669840991497,
        0.9582712650299072
      ],
      "min": [
        -0.997908890247345,
        -0.8900124430656433,
        -0.756308376789093
      ],
      "type": "VEC3"
    },
    {
      "bufferView": 1,
      "byteOffset": 1574344,
      "componentType": 5126,
      "count": 123,
      "max": [
        1.4193799495697021,
        0.4799419939517975
      ],
      "min": [
        -1.2733700275421143,
        -1.159690022468567
      ],
      "type": "VEC2"
    },
    {
      "bufferView": 0,
      "byteOffset": 955596,
      "componentType": 5125,
      "count": 123,
      "type": "SCALAR"
    },
    {
      "bufferView": 2,
      "byteOffset": 4725984,
      "componentType": 5126,
      "count": 15733,
      "max": [
        -0.16763900220394135,
        -1.969480037689209,
        0.6462720036506653
      ],
      "min": [
        -0.30435800552368164,
        -2.0407700538635254,
        0.509535014629364
      ],
      "type": "VEC3"
    },
    {
      "bufferView": 2,
      "byteOffset": 4914780,
      "componentType": 5126,
      "count": 15733,
      "max": [
        0.9986787438392639,
        1.0,
        0.9997154474258423
      ],
      "min": [
        -0.9986801147460938,
        -0.1395169496536255,
        -0.9997180104255676
      ],
      "type": "VEC3"
    },
    {
      "bufferView": 1,
      "byteOffset": 1575328,
      "componentType": 5126,
      "count": 15733,
      "max": [
        0.27900201082229614,
        0.39017799496650696
      ],
      "min": [
        -0.28220099210739136,
        -0.26677200198173523
      ],
      "type": "VEC2"
    },
    {
      "bufferView": 0,
      "byteOffset": 956088,
      "componentType": 5125,
      "count": 15735,
      "type": "SCALAR"
    },
    {
      "bufferView": 2,
      "byteOffset": 5103576,
      "componentType": 5126,
      "count": 788,
      "max": [
        0.7476549744606018,
        1.954200029373169,
        0.7004449963569641
      ],
      "min": [
        -0.7476549744606018,
        1.8549000024795532,
        0.5451059937477112
      ],
      "type": "VEC3"
    },
    {
      "bufferView": 2,
      "byteOffset": 5113032,
      "componentType": 5126,
      "count": 788,
      "max": [
        0.9950253367424011,
        0.9931593537330627,
        0.964444637298584
      ],
      "min": [
        -0.9950253367424011,
        0.00775058101862669,
        -0.9445883631706238
      ],
      "type": "VEC3"
    },
    {
      "bufferView": 1,
      "byteOffset": 1701192,
      "componentType": 5126,
      "count": 788,
      "max": [
        1.812190055847168,
        1.7910399436950684
      ],
      "min": [
        -1.7629499435424805,
        -1.5589200258255005
      ],
      "type": "VEC2"
    },
    {
      "bufferView": 0,
      "byteOffset": 1019028,
      "componentType": 5125,
      "count": 792,
      "type": "SCALAR"
    },
    {
      "bufferView": 2,
      "byteOffset": 5122488,
      "componentType": 5126,
      "count": 6217,
      "max": [
        -0.6523860096931458,
        1.3414700031280518,
        0.47991499304771423
      ],
      "min": [
        -0.8111019730567932,
        0.9394739866256714,
        0.0779179036617279
      ],
      "type": "VEC3"
    },
    {
      "bufferView": 2,
      "byteOffset": 5197092,
      "componentType": 5126,
      "count": 6217,
      "max": [
        1.0,
        0.9947972297668457,
        0.9909023642539978
      ],
      "min": [
        -1.0,
        -0.9948005676269531,
        -0.9908573627471924
      ],
      "type": "VEC3"
    },
    {
      "bufferView": 1,
      "byteOffset": 1707496,
      "componentType": 5126,
      "count": 6217,
      "max": [
        36.90800094604492,
        63.51459884643555
      ],
      "min": [
        -36.81100082397461,
        -22.831300735473633
      ],
      "type": "VEC2"
    },
    {
      "bufferView": 0,
      "byteOffset": 1022196,
      "componentType": 5125,
      "count": 7596,
      "type": "SCALAR"
    },
    {
      "bufferView": 2,
      "byteOffset": 5271696,
      "componentType": 5126,
      "count": 6217,
      "max": [
        0.811182975769043,
        -1.0474499464035034,
        0.47991499304771423
      ],
      "min": [
        0.6524680256843567,
        -1.4494500160217285,
        0.0779179036617279
      ],
      "type": "VEC3"
    },
    {
      "bufferView": 2,
      "byteOffset": 5346300,
      "componentType": 5126,
      "count": 6217,
      "max": [
        1.0,
        0.9948005676269531,
        0.9909023642539978
      ],
      "min": [
        -1.0,
        -0.9947972297668457,
        -0.9908573627471924
      ],
      "type": "VEC3"
    },
    {
      "bufferView": 1,
      "byteOffset": 1757232,
      "componentType": 5126,
      "count": 6217,
      "max": [
        36.90800094604492,
        63.51459884643555
      ],
      "min": [
        -36.81100082397461,
        -22.831300735473633
      ],
      "type": "VEC2"
    },
    {
      "bufferView": 0,
      "byteOffset": 1052580,
      "componentType": 5125,
      "count": 7596,
      "type": "SCALAR"
    },
    {
      "bufferView": 2,
      "byteOffset": 5420904,
      "componentType": 5126,
      "count": 6217,
      "max": [
        -0.6523860096931458,
        -1.0456299781799316,
        0.47991499304771423
      ],
      "min": [
        -0.8111019730567932,
        -1.4476300477981567,
        0.0779179036617279
      ],
      "type": "VEC3"
    },
    {
      "bufferView": 2,
      "byteOffset": 5495508,
      "componentType": 5126,
      "count": 6217,
      "max": [
        1.0,
        0.9947972297668457,
        0.9909023642539978
      ],
      "min": [
        -1.0,
        -0.9948005676269531,
        -0.9908573627471924
      ],
      "type": "VEC3"
    },
    {
      "bufferView": 1,
      "byteOffset": 1806968,
      "componentType": 5126,
      "count": 6217,
      "max": [
        36.90800094604492,
        63.51459884643555
      ],
      "min": [
        -36.81100082397461,
        -22.831300735473633
      ],
      "type": "VEC2"
    },
    {
      "bufferView": 0,
      "byteOffset": 1082964,
      "componentType": 5125,
      "count": 7596,
      "type": "SCALAR"
    },
    {
      "bufferView": 2,
      "byteOffset": 5570112,
      "componentType": 5126,
      "count": 6217,
      "max": [
        0.811182975769043,
        1.33965003490448,
        0.47991499304771423
      ],
      "min": [
        0.6524680256843567,
        0.9376530051231384,
        0.0779179036617279
      ],
      "type": "VEC3"
    },
    {
      "bufferView": 2,
      "byteOffset": 5644716,
      "componentType": 5126,
      "count": 6217,
      "max": [
        1.0,
        0.9948005676269531,
        0.9909023642539978
      ],
      "min": [
        -1.0,
        -0.9947972297668457,
        -0.9908573627471924
      ],
      "type": "VEC3"
    },
    {
      "bufferView": 1,
      "byteOffset": 1856704,
      "componentType": 5126,
      "count": 6217,
      "max": [
        36.90800094604492,
        63.51459884643555
      ],
      "min": [
        -36.81100082397461,
        -22.831300735473633
      ],
      "type": "VEC2"
    },
    {
      "bufferView": 0,
      "byteOffset": 1113348,
      "componentType": 5125,
      "count": 7596,
      "type": "SCALAR"
    },
    {
      "bufferView": 2,
      "byteOffset": 5719320,
      "componentType": 5126,
      "count": 1850,
      "max": [
        0.7512879967689514,
        1.9428600072860718,
        0.6973050236701965
      ],
      "min": [
        -0.7512879967689514,
        -1.9062000513076782,
        0.49950700998306274
      ],
      "type": "VEC3"
    },
    {
      "bufferView": 2,
      "byteOffset": 5741520,
      "componentType": 5126,
      "count": 1850,
      "max": [
        0.9999998807907104,
        1.0,
        1.0
      ],
      "min": [
        -0.9999998807907104,
        -1.0,
        -1.0
      ],
      "type": "VEC3"
    },
    {
      "bufferView": 1,
      "byteOffset": 1906440,
      "componentType": 5126,
      "count": 1850,
      "max": [
        16.443500518798828,
        16.46619987487793
      ],
      "min": [
        -16.403900146484375,
        -13.690699577331543
      ],
      "type": "VEC2"
    },
    {
      "bufferView": 0,
      "byteOffset": 1143732,
      "componentType": 5125,
      "count": 1890,
      "type": "SCALAR"
    },
    {
      "bufferView": 2,
      "byteOffset": 5763720,
      "componentType": 5126,
      "count": 222,
      "max": [
        0.6590369939804077,
        1.962280035018921,
        0.6973050236701965
      ],
      "min": [
        -0.6590369939804077,
        1.9227399826049805,
        0.5447520017623901
      ],
      "type": "VEC3"
    },
    {
      "bufferView": 2,
      "byteOffset": 5766384,
      "componentType": 5126,
      "count": 222,
      "max": [
        0.9190792441368103,
        0.9975524544715881,
        0.8421967029571533
      ],
      "min": [
        -0.9190792441368103,
        0.30744701623916626,
        -0.8429787158966064
      ],
      "type": "VEC3"
    },
    {
      "bufferView": 1,
      "byteOffset": 1921240,
      "componentType": 5126,
      "count": 222,
      "max": [
        7.117310047149658,
        7.75738000869751
      ],
      "min": [
        -7.476049900054932,
        -21.11090087890625
      ],
      "type": "VEC2"
    },
    {
      "bufferView": 0,
      "byteOffset": 1151292,
      "componentType": 5125,
      "count": 222,
      "type": "SCALAR"
    },
    {
      "bufferView": 2,
      "byteOffset": 5769048,
      "componentType": 5126,
      "count": 8552,
      "max": [
        0.6531959772109985,
        1.9581199884414673,
        1.2900999784469604
      ],
      "min": [
        -0.6950219869613647,
        -2.0495998859405518,
        0.4995020031929016
      ],
      "type": "VEC3"
    },
    {
      "bufferView": 2,
      "byteOffset": 5871672,
      "componentType": 5126,
      "count": 8552,
      "max": [
        1.0,
        1.0,
        1.0
      ],
      "min": [
        -1.0,
        -1.0,
        -1.0
      ],
      "type": "VEC3"
    },
    {
      "bufferView": 1,
      "byteOffset": 1923016,
      "componentType": 5126,
      "count": 8552,
      "max": [
        14.47439956665039,
        75.44730377197266
      ],
      "min": [
        -11.297900199890137,
        -20.171100616455078
      ],
      "type": "VEC2"
    },
    {
      "bufferView": 0,
      "byteOffset": 1152180,
      "componentType": 5125,
      "count": 9450,
      "type": "SCALAR"
    },
    {
      "bufferView": 2,
      "byteOffset": 5974296,
      "componentType": 5126,
      "count": 7585,
      "max": [
        0.6950219869613647,
        1.9581199884414673,
        1.3797199726104736
      ],
      "min": [
        -0.38347598910331726,
        -2.0495998859405518,
        0.5164939761161804
      ],
      "type": "VEC3"
    },
    {
      "bufferView": 2,
      "byteOffset": 6065316,
      "componentType": 5126,
      "count": 7585,
      "max": [
        1.0,
        1.0,
        1.0
      ],
      "min": [
        -1.0,
        -1.0,
        -1.0
      ],
      "type": "VEC3"
    },
    {
      "bufferView": 1,
      "byteOffset": 1991432,
      "componentType": 5126,
      "count": 7585,
      "max": [
        14.47439956665039,
        75.44730377197266
      ],
      "min": [
        -13.861200332641602,
        -20.171100616455078
      ],
      "type": "VEC2"
    },
    {
      "bufferView": 0,
      "byteOffset": 1189980,
      "componentType": 5125,
      "count": 8496,
      "type": "SCALAR"
    },
    {
      "bufferView": 2,
      "byteOffset": 6156336,
      "componentType": 5126,
      "count": 87,
      "max": [
        0.7967829704284668,
        1.5072300434112549,
        0.900521993637085
      ],
      "min": [
        -0.7967829704284668,
        -0.9790850281715393,
        0.34314799308776855
      ],
      "type": "VEC3"
    },
    {
      "bufferView": 2,
      "byteOffset": 6157380,
      "componentType": 5126,
      "count": 87,
      "max": [
        1.0,
        1.0,
        1.0
      ],
      "min": [
        -1.0,
        -1.0,
        -1.0
      ],
      "type": "VEC3"
    },
    {
      "bufferView": 1,
      "byteOffset": 2052112,
      "componentType": 5126,
      "count": 87,
      "max": [
        2826680.0,
        240232.0
      ],
      "min": [
        -2826680.0,
        -1384160.0
      ],
      "type": "VEC2"
    },
    {
      "bufferView": 0,
      "byteOffset": 1223964,
      "componentType": 5125,
      "count": 111,
      "type": "SCALAR"
    }
  ],
  "asset": {
    "extras": {
      "author": "tonielpro520 (https://sketchfab.com/tonielpro520)",
      "license": "CC-BY-4.0 (http://creativecommons.org/licenses/by/4.0/)",
      "source": "https://sketchfab.com/3d-models/1986-ford-escort-xr3-42f1f13967dd46d0a9df8c0f6620754d",
      "title": "1986 Ford Escort XR3"
    },
    "generator": "Sketchfab-16.95.0",
    "version": "2.0"
  },
  "bufferViews": [
    {
      "buffer": 0,
      "byteLength": 1224408,
      "name": "floatBufferViews",
      "target": 34963
    },
    {
      "buffer": 0,
      "byteLength": 2052808,
      "byteOffset": 1224408,
      "byteStride": 8,
      "name": "floatBufferViews",
      "target": 34962
    },
    {
      "buffer": 0,
      "byteLength": 6158424,
      "byteOffset": 3277216,
      "byteStride": 12,
      "name": "floatBufferViews",
      "target": 34962
    }
  ],
  "buffers": [
    {
      "byteLength": 9435640,
      "uri": "scene.bin"
    }
  ],
  "images": [
    {
      "uri": "textures/Carro_Logo_baseColor.jpeg"
    },
    {
      "uri": "textures/Carro_Pneu_baseColor.jpeg"
    },
    {
      "uri": "textures/Carro_Refletor_Farol_baseColor.png"
    },
    {
      "uri": "textures/Carro_Refletor_Farol_1_baseColor.png"
    },
    {
      "uri": "textures/Carro_Refletor_Lanterna_baseColor.png"
    }
  ],
  "materials": [
    {
      "doubleSided": true,
      "name": "Carro_Cromado",
      "pbrMetallicRoughness": {
        "baseColorFactor": [
          0.494118,
          0.494118,
          0.494118,
          1.0
        ],
        "metallicFactor": 0.0
      }
    },
    {
      "doubleSided": true,
      "name": "Carro_Espelhos",
      "pbrMetallicRoughness": {
        "baseColorFactor": [
          0.0,
          0.0,
          0.0,
          1.0
        ],
        "metallicFactor": 0.0
      }
    },
    {
      "doubleSided": true,
      "name": "Carro_Interno",
      "pbrMetallicRoughness": {
        "baseColorFactor": [
          0.152941,
          0.152941,
          0.152941,
          1.0
        ],
        "metallicFactor": 0.0
      }
    },
    {
      "doubleSided": true,
      "name": "Carro_Logo",
      "pbrMetallicRoughness": {
        "baseColorTexture": {
          "index": 0
        },
        "metallicFactor": 0.0
      }
    },
    {
      "doubleSided": true,
      "name": "Carro_Metal_Preto",
      "pbrMetallicRoughness": {
        "baseColorFactor": [
          0.227451,
          0.227451,
          0.227451,
          1.0
        ],
        "metallicFactor": 0.0
      }
    },
    {
      "doubleSided": true,
      "name": "Carro_Metal_Preto_1",
      "pbrMetallicRoughness": {
        "baseColorFactor": [
          0.227451,
          0.227451,
          0.227451,
          1.0
        ],
        "metallicFactor": 0.0
      }
    },
    {
      "doubleSided": true,
      "name": "Carro_Pintura",
      "pbrMetallicRoughness": {
        "baseColorFactor": [
          0.980392,
          0.980392,
          0.980392,
          1.0
        ],
        "metallicFactor": 0.0
      }
    },
    {
      "doubleSided": true,
      "name": "Carro_Plastico",
      "pbrMetallicRoughness": {
        "baseColorFactor": [
          0.07451,
          0.07451,
          0.07451,
          1.0
        ],
        "metallicFactor": 0.0
      }
    },
    {
      "doubleSided": true,
      "name": "Carro_Plastico1",
      "pbrMetallicRoughness": {
        "baseColorFactor": [
          0.070588,
          0.070588,
          0.070588,
          1.0
        ],
        "metallicFactor": 0.0
      }
    },
    {
      "doubleSided": true,
      "name": "Carro_Plastico_1",
      "pbrMetallicRoughness": {
        "baseColorFactor": [
          0.07451,
          0.07451,
          0.07451,
          1.0
        ],
        "metallicFactor": 0.0
      }
    },
    {
      "doubleSided": true,
      "name": "Carro_Pneu",
      "pbrMetallicRoughness": {
        "baseColorTexture": {
          "index": 1
        },
        "metallicFactor": 0.0
      }
    },
    {
      "doubleSided": true,
      "name": "Carro_Refletor_Farol",
      "pbrMetallicRoughness": {
        "baseColorTexture": {
          "index": 2
        },
        "metallicFactor": 0.0
      }
    },
    {
      "doubleSided": true,
      "name": "Carro_Refletor_Farol_1",
      "pbrMetallicRoughness": {
        "baseColorTexture": {
          "index": 3
        },
        "metallicFactor": 0.0
      }
    },
    {
      "doubleSided": true,
      "name": "Carro_Refletor_Lanterna",
      "pbrMetallicRoughness": {
        "baseColorTexture": {
          "index": 4
        },
        "metallicFactor": 0.0
      }
    },
    {
      "doubleSided": true,
      "name": "Carro_Roda",
      "pbrMetallicRoughness": {
        "baseColorFactor": [
          0.827451,
          0.827451,
          0.827451,
          1.0
        ],
        "metallicFactor": 0.0
      }
    },
    {
      "alphaMode": "BLEND",
      "doubleSided": true,
      "name": "Carro_Vidro_Laranja2",
      "pbrMetallicRoughness": {
        "baseColorFactor": [
          0.0,
          0.0,
          0.0,
          0.572941
        ],
        "metallicFactor": 0.0
      }
    },
    {
      "alphaMode": "BLEND",
      "doubleSided": true,
      "name": "Carro_Vidro_Vermelho2_1",
      "pbrMetallicRoughness": {
        "baseColorFactor": [
          0.0,
          0.0,
          0.0,
          0.544244
        ],
        "metallicFactor": 0.0
      }
    },
    {
      "alphaMode": "BLEND",
      "doubleSided": true,
      "name": "Carro_Vidros2",
      "pbrMetallicRoughness": {
        "baseColorFactor": [
          0.0,
          0.0,
          0.0,
          0.1
        ],
        "metallicFactor": 0.0
      }
    },
    {
      "doubleSided": true,
      "name": "FrontColor",
      "pbrMetallicRoughness": {
        "metallicFactor": 0.0
      }
    }
  ],
  "meshes": [
    {
      "name": "Object_0",
      "primitives": [
        {
          "attributes": {
            "NORMAL": 1,
            "POSITION": 0,
            "TEXCOORD_0": 2
          },
          "indices": 3,
          "material": 4,
          "mode": 4
        }
      ]
    },
    {
      "name": "Object_1",
      "primitives": [
        {
          "attributes": {
            "NORMAL": 5,
            "POSITION": 4,
            "TEXCOORD_0": 6
          },
          "indices": 7,
          "material": 0,
          "mode": 4
        }
      ]
    },
    {
      "name": "Object_2",
      "primitives": [
        {
          "attributes": {
            "NORMAL": 9,
            "POSITION": 8,
            "TEXCOORD_0": 10
          },
          "indices": 11,
          "material": 1,
          "mode": 4
        }
      ]
    },
    {
      "name": "Object_3",
      "primitives": [
        {
          "attributes": {
            "NORMAL": 13,
            "POSITION": 12,
            "TEXCOORD_0": 14
          },
          "indices": 15,
          "material": 2,
          "mode": 4
        }
      ]
    },
    {
      "name": "Object_4",
      "primitives": [
        {
          "attributes": {
            "NORMAL": 17,
            "POSITION": 16,
            "TEXCOORD_0": 18
          },
          "indices": 19,
          "material": 2,
          "mode": 4
        }
      ]
    },
    {
      "name": "Object_5",
      "primitives": [
        {
          "attributes": {
            "NORMAL": 21,
            "POSITION": 20,
            "TEXCOORD_0": 22
          },
          "indices": 23,
          "material": 2,
          "mode": 4
        }
      ]
    },
    {
      "name": "Object_6",
      "primitives": [
        {
          "attributes": {
            "NORMAL": 25,
            "POSITION": 24,
            "TEXCOORD_0": 26
          },
          "indices": 27,
          "material": 3,
          "mode": 4
        }
      ]
    },
    {
      "name": "Object_7",
      "primitives": [
        {
          "attributes": {
            "NORMAL": 29,
            "POSITION": 28,
            "TEXCOORD_0": 30
          },
          "indices": 31,
          "material": 5,
          "mode": 4
        }
      ]
    },
    {
      "name": "Object_8",
      "primitives": [
        {
          "attributes": {
            "NORMAL": 33,
            "POSITION": 32,
            "TEXCOORD_0": 34
          },
          "indices": 35,
          "material": 5,
          "mode": 4
        }
      ]
    },
    {
      "name": "Object_9",
      "primitives": [
        {
          "attributes": {
            "NORMAL": 37,
            "POSITION": 36,
            "TEXCOORD_0": 38
          },
          "indices": 39,
          "material": 5,
          "mode": 4
        }
      ]
    },
    {
      "name": "Object_10",
      "primitives": [
        {
          "attributes": {
            "NORMAL": 41,
            "POSITION": 40,
            "TEXCOORD_0": 42
          },
          "indices": 43,
          "material": 6,
          "mode": 4
        }
      ]
    },
    {
      "name": "Object_11",
      "primitives": [
        {
          "attributes": {
            "NORMAL": 45,
            "POSITION": 44,
            "TEXCOORD_0": 46
          },
          "indices": 47,
          "material": 6,
          "mode": 4
        }
      ]
    },
    {
      "name": "Object_12",
      "primitives": [
        {
          "attributes": {
            "NORMAL": 49,
            "POSITION": 48,
            "TEXCOORD_0": 50
          },
          "indices": 51,
          "material": 6,
          "mode": 4
        }
      ]
    },
    {
      "name": "Object_13",
      "primitives": [
        {
          "attributes": {
            "NORMAL": 53,
            "POSITION": 52,
            "TEXCOORD_0": 54
          },
          "indices": 55,
          "material": 7,
          "mode": 4
        }
      ]
    },
    {
      "name": "Object_14",
      "primitives": [
        {
          "attributes": {
            "NORMAL": 57,
            "POSITION": 56,
            "TEXCOORD_0": 58
          },
          "indices": 59,
          "material": 8,
          "mode": 4
        }
      ]
    },
    {
      "name": "Object_15",
      "primitives": [
        {
          "attributes": {
            "NORMAL": 61,
            "POSITION": 60,
            "TEXCOORD_0": 62
          },
          "indices": 63,
          "material": 9,
          "mode": 4
        }
      ]
    },
    {
      "name": "Object_16",
      "primitives": [
        {
          "attributes": {
            "NORMAL": 65,
            "POSITION": 64,
            "TEXCOORD_0": 66
          },
          "indices": 67,
          "material": 9,
          "mode": 4
        }
      ]
    },
    {
      "name": "Object_17",
      "primitives": [
        {
          "attributes": {
            "NORMAL": 69,
            "POSITION": 68,
            "TEXCOORD_0": 70
          },
          "indices": 71,
          "material": 9,
          "mode": 4
        }
      ]
    },
    {
      "name": "Object_18",
      "primitives": [
        {
          "attributes": {
            "NORMAL": 73,
            "POSITION": 72,
            "TEXCOORD_0": 74
          },
          "indices": 75,
          "material": 9,
          "mode": 4
        }
      ]
    },
    {
      "name": "Object_19",
      "primitives": [
        {
          "attributes": {
            "NORMAL": 77,
            "POSITION": 76,
            "TEXCOORD_0": 78
          },
          "indices": 79,
          "material": 9,
          "mode": 4
        }
      ]
    },
    {
      "name": "Object_20",
      "primitives": [
        {
          "attributes": {
            "NORMAL": 81,
            "POSITION": 80,
            "TEXCOORD_0": 82
          },
          "indices": 83,
          "material": 9,
          "mode": 4
        }
      ]
    },
    {
      "name": "Object_21",
      "primitives": [
        {
          "attributes": {
            "NORMAL": 85,
            "POSITION": 84,
            "TEXCOORD_0": 86
          },
          "indices": 87,
          "material": 9,
          "mode": 4
        }
      ]
    },
    {
      "name": "Object_22",
      "primitives": [
        {
          "attributes": {
            "NORMAL": 89,
            "POSITION": 88,
            "TEXCOORD_0": 90
          },
          "indices": 91,
          "material": 10,
          "mode": 4
        }
      ]
    },
    {
      "name": "Object_23",
      "primitives": [
        {
          "attributes": {
            "NORMAL": 93,
            "POSITION": 92,
            "TEXCOORD_0": 94
          },
          "indices": 95,
          "material": 11,
          "mode": 4
        }
      ]
    },
    {
      "name": "Object_24",
      "primitives": [
        {
          "attributes": {
            "NORMAL": 97,
            "POSITION": 96,
            "TEXCOORD_0": 98
          },
          "indices": 99,
          "material": 12,
          "mode": 4
        }
      ]
    },
    {
      "name": "Object_25",
      "primitives": [
        {
          "attributes": {
            "NORMAL": 101,
            "POSITION": 100,
            "TEXCOORD_0": 102
          },
          "indices": 103,
          "material": 12,
          "mode": 4
        }
      ]
    },
    {
      "name": "Object_26",
      "primitives": [
        {
          "attributes": {
            "NORMAL": 105,
            "POSITION": 104,
            "TEXCOORD_0": 106
          },
          "indices": 107,
          "material": 12,
          "mode": 4
        }
      ]
    },
    {
      "name": "Object_27",
      "primitives": [
        {
          "attributes": {
            "NORMAL": 109,
            "POSITION": 108,
            "TEXCOORD_0": 110
          },
          "indices": 111,
          "material": 12,
          "mode": 4
        }
      ]
    },
    {
      "name": "Object_28",
      "primitives": [
        {
          "attributes": {
            "NORMAL": 113,
            "POSITION": 112,
            "TEXCOORD_0": 114
          },
          "indices": 115,
          "material": 13,
          "mode": 4
        }
      ]
    },
    {
      "name": "Object_29",
      "primitives": [
        {
          "attributes": {
            "NORMAL": 117,
            "POSITION": 116,
            "TEXCOORD_0": 118
          },
          "indices": 119,
          "material": 14,
          "mode": 4
        }
      ]
    },
    {
      "name": "Object_30",
      "primitives": [
        {
          "attributes": {
            "NORMAL": 121,
            "POSITION": 120,
            "TEXCOORD_0": 122
          },
          "indices": 123,
          "material": 14,
          "mode": 4
        }
      ]
    },
    {
      "name": "Object_31",
      "primitives": [
        {
          "attributes": {
            "NORMAL": 125,
            "POSITION": 124,
            "TEXCOORD_0": 126
          },
          "indices": 127,
          "material": 14,
          "mode": 4
        }
      ]
    },
    {
      "name": "Object_32",
      "primitives": [
        {
          "attributes": {
            "NORMAL": 129,
            "POSITION": 128,
            "TEXCOORD_0": 130
          },
          "indices": 131,
          "material": 14,
          "mode": 4
        }
      ]
    },
    {
      "name": "Object_33",
      "primitives": [
        {
          "attributes": {
            "NORMAL": 133,
            "POSITION": 132,
            "TEXCOORD_0": 134
          },
          "indices": 135,
          "material": 15,
          "mode": 4
        }
      ]
    },
    {
      "name": "Object_34",
      "primitives": [
        {
          "attributes": {
            "NORMAL": 137,
            "POSITION": 136,
            "TEXCOORD_0": 138
          },
          "indices": 139,
          "material": 16,
          "mode": 4
        }
      ]
    },
    {
      "name": "Object_35",
      "primitives": [
        {
          "attributes": {
            "NORMAL": 141,
            "POSITION": 140,
            "TEXCOORD_0": 142
          },
          "indices": 143,
          "material": 17,
          "mode": 4
        }
      ]
    },
    {
      "name": "Object_36",
      "primitives": [
        {
          "attributes": {
            "NORMAL": 145,
            "POSITION": 144,
            "TEXCOORD_0": 146
          },
          "indices": 147,
          "material": 17,
          "mode": 4
        }
      ]
    },
    {
      "name": "Object_37",
      "primitives": [
        {
          "attributes": {
            "NORMAL": 149,
            "POSITION": 148,
            "TEXCOORD_0": 150
          },
          "indices": 151,
          "material": 18,
          "mode": 4
        }
      ]
    }
  ],
  "nodes": [
    {
      "children": [
        1
      ],
      "matrix": [
        1.0,
        0.0,
        0.0,
        0.0,
        0.0,
        2.220446049250313e-16,
        -1.0,
        0.0,
        0.0,
        1.0,
        2.220446049250313e-16,
        0.0,
        0.0,
        0.0,
        0.0,
        1.0
      ],
      "name": "Sketchfab_model"
    },
    {
      "children": [
        2,
        3,
        4,
        5,
        6,
        7,
        8,
        9,
        10,
        11,
        12,
        13,
        14,
        15,
        16,
        17,
        18,
        19,
        20,
        21,
        22,
        23,
        24,
        25,
        26,
        27,
        28,
        29,
        30,
        31,
        32,
        33,
        34,
        35,
        36,
        37,
        38,
        39
      ],
      "name": "00e2b3a3-e999-467e-b8b7-d88309ff761d.obj.cleaner.materialmerger.gles"
    },
    {
      "mesh": 0,
      "name": "Object_2"
    },
    {
      "mesh": 1,
      "name": "Object_3"
    },
    {
      "mesh": 2,
      "name": "Object_4"
    },
    {
      "mesh": 3,
      "name": "Object_5"
    },
    {
      "mesh": 4,
      "name": "Object_6"
    },
    {
      "mesh": 5,
      "name": "Object_7"
    },
    {
      "mesh": 6,
      "name": "Object_8"
    },
    {
      "mesh": 7,
      "name": "Object_9"
    },
    {
      "mesh": 8,
      "name": "Object_10"
    },
    {
      "mesh": 9,
      "name": "Object_11"
    },
    {
      "mesh": 10,
      "name": "Object_12"
    },
    {
      "mesh": 11,
      "name": "Object_13"
    },
    {
      "mesh": 12,
      "name": "Object_14"
    },
    {
      "mesh": 13,
      "name": "Object_15"
    },
    {
      "mesh": 14,
      "name": "Object_16"
    },
    {
      "mesh": 15,
      "name": "Object_17"
    },
    {
      "mesh": 16,
      "name": "Object_18"
    },
    {
      "mesh": 17,
      "name": "Object_19"
    },
    {
      "mesh": 18,
      "name": "Object_20"
    },
    {
      "mesh": 19,
      "name": "Object_21"
    },
    {
      "mesh": 20,
      "name": "Object_22"
    },
    {
      "mesh": 21,
      "name": "Object_23"
    },
    {
      "mesh": 22,
      "name": "Object_24"
    },
    {
      "mesh": 23,
      "name": "Object_25"
    },
    {
      "mesh": 24,
      "name": "Object_26"
    },
    {
      "mesh": 25,
      "name": "Object_27"
    },
    {
      "mesh": 26,
      "name": "Object_28"
    },
    {
      "mesh": 27,
      "name": "Object_29"
    },
    {
      "mesh": 28,
      "name": "Object_30"
    },
    {
      "mesh": 29,
      "name": "Object_31"
    },
    {
      "mesh": 30,
      "name": "Object_32"
    },
    {
      "mesh": 31,
      "name": "Object_33"
    },
    {
      "mesh": 32,
      "name": "Object_34"
    },
    {
      "mesh": 33,
      "name": "Object_35"
    },
    {
      "mesh": 34,
      "name": "Object_36"
    },
    {
      "mesh": 35,
      "name": "Object_37"
    },
    {
      "mesh": 36,
      "name": "Object_38"
    },
    {
      "mesh": 37,
      "name": "Object_39"
    }
  ],
  "samplers": [
    {
      "magFilter": 9729,
      "minFilter": 9987,
      "wrapS": 10497,
      "wrapT": 10497
    }
  ],
  "scene": 0,
  "scenes": [
    {
      "name": "Sketchfab_Scene",
      "nodes": [
        0
      ]
    }
  ],
  "textures": [
    {
      "sampler": 0,
      "source": 0
    },
    {
      "sampler": 0,
      "source": 1
    },
    {
      "sampler": 0,
      "source": 2
    },
    {
      "sampler": 0,
      "source": 3
    },
    {
      "sampler": 0,
      "source": 4
    }
  ]
}
